<svg xmlns="http://www.w3.org/2000/svg" xmlns:xlink="http://www.w3.org/1999/xlink" width="400" zoomAndPan="magnify" viewBox="0 0 300 74.999997" height="100" preserveAspectRatio="xMidYMid meet" version="1.0"><defs><g/></defs><path fill="#603322" d="M 68.738281 48.546875 C 68.484375 48.96875 68.207031 49.363281 67.90625 49.738281 C 67.996094 49.492188 68.085938 49.242188 68.1875 48.984375 C 68.546875 48.089844 69.089844 47.355469 69.242188 46.382812 C 69.398438 45.40625 69.25 44.382812 69.027344 43.425781 C 68.316406 40.34375 65.460938 39.449219 62.605469 39.382812 C 63.890625 39.257812 65.183594 39.421875 66.386719 39.960938 C 67.839844 40.617188 69.097656 41.78125 69.609375 43.316406 C 70.210938 45.117188 69.679688 46.972656 68.738281 48.546875 Z M 57.019531 59.027344 C 56.109375 60.007812 53.929688 62.480469 52.441406 61.222656 C 52.875 60.191406 53.277344 59.148438 53.652344 58.09375 C 54.105469 58.617188 55.066406 58.546875 55.699219 58.300781 C 57.101562 57.757812 58.273438 56.566406 58.976562 55.265625 C 59.171875 54.910156 59.308594 54.515625 59.550781 54.183594 C 59.898438 53.703125 60.414062 53.421875 60.886719 53.085938 C 61.589844 52.585938 62.265625 52.046875 62.90625 51.464844 C 64.171875 50.3125 65.367188 48.980469 66.265625 47.511719 C 66.980469 46.34375 67.269531 44.972656 66.375 43.816406 C 65.503906 42.691406 64.039062 42.308594 62.675781 42.480469 C 61.132812 42.675781 59.425781 43.421875 58.132812 44.273438 C 57.519531 44.679688 56.914062 45.175781 56.519531 45.789062 C 56.550781 45.535156 56.578125 45.277344 56.605469 45.019531 C 56.660156 44.449219 56.730469 43.859375 56.769531 43.265625 C 56.769531 43.265625 56.773438 43.265625 56.773438 43.265625 C 56.839844 43.214844 56.832031 43.125 56.785156 43.082031 C 56.8125 42.625 56.816406 42.171875 56.789062 41.722656 C 57.390625 41.414062 57.9375 41.015625 58.535156 40.6875 C 59.402344 40.21875 60.316406 39.855469 61.273438 39.617188 C 61.363281 39.59375 61.457031 39.570312 61.550781 39.550781 C 62.695312 39.460938 63.84375 39.425781 64.964844 39.730469 C 65.917969 39.992188 66.929688 40.597656 67.640625 41.285156 C 68.5 42.113281 68.773438 43.195312 68.941406 44.335938 C 69.089844 45.347656 69.097656 46.351562 68.714844 47.316406 C 68.425781 48.03125 68.019531 48.667969 67.777344 49.40625 C 67.648438 49.792969 67.488281 50.128906 67.300781 50.4375 C 65.390625 52.488281 62.855469 53.910156 60.628906 55.613281 C 59.292969 56.632812 58.164062 57.800781 57.019531 59.027344 Z M 48.199219 67.339844 C 48.144531 67.335938 48.085938 67.34375 48.027344 67.355469 C 48.238281 66.820312 48.441406 66.289062 48.761719 65.792969 C 49.105469 65.261719 49.515625 64.769531 49.902344 64.269531 C 49.941406 64.214844 49.980469 64.160156 50.019531 64.109375 C 50 64.148438 49.980469 64.183594 49.960938 64.222656 C 49.40625 65.28125 48.820312 66.320312 48.199219 67.339844 Z M 43.296875 72.050781 C 41.785156 72.820312 40.128906 73.304688 38.464844 73.617188 C 36.710938 73.953125 34.917969 74.074219 33.132812 74.035156 C 32.292969 74.015625 31.453125 73.964844 30.621094 73.878906 C 30.078125 73.828125 29.523438 73.695312 28.976562 73.679688 C 28.484375 73.335938 27.929688 73.078125 27.355469 72.847656 C 28.429688 72.988281 29.519531 73.046875 30.574219 73.074219 C 32.71875 73.136719 34.863281 73.023438 36.980469 72.683594 C 39.117188 72.34375 41.230469 71.832031 43.265625 71.097656 C 44.316406 70.722656 45.507812 70.316406 46.574219 69.75 C 46.042969 70.097656 45.605469 70.578125 45.097656 70.953125 C 44.527344 71.367188 43.925781 71.734375 43.296875 72.050781 Z M 13.902344 63.847656 C 12.246094 62.082031 10.78125 60.140625 9.515625 58.074219 C 9.628906 58.21875 9.746094 58.359375 9.855469 58.503906 C 11.820312 61.054688 13.746094 63.609375 16.003906 65.910156 C 15.277344 65.25 14.574219 64.566406 13.902344 63.847656 Z M 7.75 42.914062 C 7.816406 42.914062 7.890625 42.894531 7.964844 42.847656 C 8.148438 42.730469 8.335938 42.613281 8.523438 42.5 C 7.6875 43.320312 6.984375 44.257812 6.378906 45.296875 C 6.0625 45.835938 5.542969 46.605469 5.324219 47.359375 C 5.113281 45.636719 6.574219 44.089844 7.75 42.914062 Z M 27.617188 35.519531 C 30.464844 34.976562 33.371094 34.742188 36.273438 34.726562 C 34.957031 34.789062 33.648438 34.886719 32.347656 35.011719 C 28.328125 35.398438 24.351562 36.125 20.457031 37.171875 C 19.582031 37.40625 18.6875 37.648438 17.789062 37.910156 C 20.992188 36.890625 24.320312 36.148438 27.617188 35.519531 Z M 55.1875 39.265625 C 55.078125 39.15625 54.96875 39.054688 54.851562 38.96875 C 54.675781 38.835938 54.484375 38.769531 54.289062 38.667969 C 53.671875 38.335938 53.257812 37.890625 52.734375 37.449219 C 52.386719 37.15625 52.023438 36.890625 51.648438 36.644531 C 52.65625 36.996094 53.621094 37.484375 54.390625 38.226562 C 54.695312 38.515625 54.96875 38.875 55.1875 39.265625 Z M 63.070312 37.054688 C 62.722656 37.097656 62.40625 37.144531 62.152344 37.167969 C 60.058594 37.355469 58.3125 38.433594 56.496094 39.425781 C 56.4375 39.265625 56.367188 39.109375 56.289062 38.953125 C 58.253906 37.734375 60.726562 36.882812 63.070312 37.054688 Z M 59.339844 53.097656 C 58.859375 53.339844 58.410156 53.667969 57.984375 53.96875 C 57.5 54.3125 56.765625 54.894531 56.132812 55.058594 C 55.886719 55.039062 55.65625 54.976562 55.429688 54.789062 C 55.164062 54.578125 55.007812 54.261719 54.957031 53.933594 C 55.40625 52.273438 55.78125 50.589844 56.074219 48.894531 C 56.1875 48.238281 56.289062 47.582031 56.378906 46.921875 C 57.460938 44.914062 59.914062 43.871094 62.070312 43.40625 C 63.378906 43.121094 64.976562 43.25 65.78125 44.480469 C 66.636719 45.78125 65.433594 47.285156 64.648438 48.300781 C 63.90625 49.265625 63.070312 50.160156 62.15625 50.96875 C 61.273438 51.746094 60.210938 52.316406 59.339844 53.097656 Z M 55.1875 57.507812 C 54.957031 57.523438 54.742188 57.488281 54.542969 57.285156 C 54.339844 57.078125 54.273438 56.863281 54.269531 56.574219 C 54.269531 56.445312 54.292969 56.3125 54.296875 56.179688 C 54.4375 55.730469 54.578125 55.277344 54.707031 54.820312 C 54.949219 55.351562 55.621094 55.71875 56.230469 55.667969 C 56.921875 55.609375 57.46875 55.132812 58.003906 54.746094 C 58.105469 54.671875 58.210938 54.601562 58.316406 54.53125 C 58.097656 54.949219 57.878906 55.371094 57.582031 55.738281 C 57.414062 55.949219 56.105469 57.128906 55.1875 57.507812 Z M 6.121094 50.503906 C 6.226562 50.902344 6.332031 51.300781 6.445312 51.703125 C 6.285156 51.28125 6.128906 50.855469 5.976562 50.429688 C 6.023438 50.457031 6.074219 50.480469 6.121094 50.503906 Z M 5.933594 50.160156 C 5.914062 50.148438 5.890625 50.136719 5.867188 50.128906 C 5.863281 50.113281 5.859375 50.101562 5.855469 50.089844 C 5.882812 50.113281 5.90625 50.136719 5.933594 50.160156 Z M 43.28125 49.875 C 43.546875 49.792969 43.8125 49.6875 44.082031 49.582031 C 45.167969 49.171875 46.234375 48.71875 47.292969 48.242188 C 47.992188 47.929688 48.683594 47.601562 49.371094 47.261719 C 48.464844 48 47.527344 48.597656 46.46875 49.148438 C 45.660156 49.566406 44.902344 49.832031 43.984375 49.871094 C 43.746094 49.882812 43.515625 49.878906 43.28125 49.875 Z M 15.730469 52.996094 C 17.175781 53.140625 18.632812 53.195312 20.082031 53.136719 C 20.808594 53.265625 21.585938 53.28125 22.285156 53.316406 C 23.074219 53.359375 23.863281 53.363281 24.652344 53.351562 C 21.351562 54.046875 18.070312 54.070312 14.753906 53.402344 C 13.179688 53.085938 11.675781 52.617188 10.203125 52.054688 C 12.019531 52.503906 13.871094 52.8125 15.730469 52.996094 Z M 8.960938 46.738281 C 8.839844 46.882812 8.726562 47.027344 8.617188 47.171875 C 8.71875 47.023438 8.832031 46.878906 8.960938 46.738281 Z M 34.285156 37.617188 C 34.304688 37.609375 34.324219 37.605469 34.339844 37.601562 C 34.359375 37.597656 34.375 37.589844 34.394531 37.582031 C 37.605469 37.257812 40.84375 37.34375 44.035156 38.035156 C 40.796875 37.808594 37.53125 37.679688 34.285156 37.617188 Z M 34.136719 39.886719 C 34.246094 39.863281 34.355469 39.835938 34.464844 39.808594 C 34.558594 39.816406 34.652344 39.824219 34.746094 39.828125 C 34.542969 39.847656 34.339844 39.867188 34.136719 39.886719 Z M 44.300781 40.261719 C 43.980469 40.203125 43.660156 40.148438 43.339844 40.097656 C 44.039062 40.1875 44.734375 40.3125 45.410156 40.496094 C 44.972656 40.390625 44.578125 40.3125 44.300781 40.261719 Z M 19.15625 50.0625 C 19.40625 50.109375 19.652344 50.148438 19.902344 50.183594 C 19.15625 50.113281 18.410156 50.042969 17.664062 49.980469 C 18.164062 49.957031 18.660156 49.96875 19.15625 50.0625 Z M 18.03125 43.257812 C 17.980469 43.292969 17.925781 43.324219 17.875 43.359375 C 17.871094 43.328125 17.867188 43.300781 17.859375 43.269531 C 18.007812 43.207031 18.160156 43.144531 18.3125 43.082031 C 18.21875 43.136719 18.125 43.195312 18.03125 43.257812 Z M 23.921875 42.425781 C 22.507812 42.996094 21.121094 43.664062 19.824219 44.472656 C 20.863281 43.738281 21.992188 43.121094 23.121094 42.539062 C 23.175781 42.511719 23.234375 42.480469 23.289062 42.453125 C 23.421875 42.410156 23.546875 42.367188 23.675781 42.332031 C 24.359375 42.128906 25.042969 41.9375 25.730469 41.753906 C 25.121094 41.960938 24.515625 42.1875 23.921875 42.425781 Z M 41.285156 47.621094 C 41.296875 47.625 41.304688 47.621094 41.3125 47.625 C 41.300781 47.625 41.289062 47.628906 41.277344 47.628906 C 41.28125 47.628906 41.285156 47.625 41.285156 47.621094 Z M 40.523438 47.757812 C 40.609375 47.695312 40.695312 47.636719 40.777344 47.570312 C 40.773438 47.632812 40.800781 47.6875 40.851562 47.730469 C 40.671875 47.773438 40.496094 47.828125 40.320312 47.882812 C 40.390625 47.839844 40.457031 47.800781 40.523438 47.757812 Z M 28.570312 49.285156 C 29.910156 49.222656 31.261719 49.109375 32.597656 48.917969 C 32.140625 49.023438 31.679688 49.125 31.21875 49.230469 C 30.222656 49.449219 29.207031 49.667969 28.179688 49.605469 C 27.484375 49.566406 26.796875 49.410156 26.109375 49.292969 C 26.933594 49.316406 27.753906 49.324219 28.570312 49.285156 Z M 42.921875 43.085938 C 43.324219 43.261719 43.632812 43.511719 43.75 43.863281 C 43.5625 43.566406 43.265625 43.296875 42.921875 43.085938 Z M 42.421875 46.074219 C 42.664062 45.867188 42.851562 45.640625 42.984375 45.40625 C 43.046875 45.4375 43.113281 45.449219 43.183594 45.445312 C 42.75 45.9375 42.152344 46.40625 41.640625 46.804688 C 41.898438 46.554688 42.152344 46.304688 42.421875 46.074219 Z M 30.019531 47.707031 C 30.710938 47.574219 31.386719 47.355469 32.101562 47.316406 C 32.4375 47.296875 32.847656 47.328125 33.289062 47.367188 C 32.867188 47.445312 32.445312 47.515625 32.023438 47.578125 C 31.355469 47.65625 30.683594 47.691406 30.019531 47.707031 Z M 21.394531 48.074219 C 21.394531 48.074219 21.394531 48.074219 21.394531 48.078125 C 21.394531 48.078125 21.394531 48.074219 21.394531 48.074219 Z M 35.382812 46.050781 C 35.375 46.054688 35.363281 46.054688 35.355469 46.058594 C 35.296875 46.066406 35.242188 46.066406 35.183594 46.074219 C 35.25 46.066406 35.316406 46.058594 35.382812 46.050781 Z M 38.316406 45 C 38.613281 44.976562 38.90625 44.957031 39.199219 44.933594 C 38.984375 44.988281 38.773438 45.03125 38.5625 45.03125 C 38.476562 45.03125 38.398438 45.015625 38.316406 45 Z M 46.476562 41.167969 C 47.714844 41.519531 49.320312 42.5 47.917969 43.886719 C 47.375 44.425781 46.644531 44.820312 46.015625 45.25 C 44.738281 46.113281 43.296875 47.082031 41.730469 47.277344 C 43.1875 46.121094 45.820312 43.839844 43.316406 42.734375 C 41.980469 42.144531 40.335938 42.15625 38.910156 42.21875 C 37.25 42.289062 35.589844 42.449219 33.9375 42.613281 C 28.089844 43.199219 22.222656 44.351562 17.019531 47.152344 C 17.160156 46.988281 17.296875 46.824219 17.433594 46.660156 C 19.429688 44.816406 21.917969 43.527344 24.445312 42.554688 C 27.667969 41.3125 31.089844 40.488281 34.527344 40.179688 C 38.492188 39.824219 42.636719 40.078125 46.476562 41.167969 Z M 21.589844 50.332031 C 22.796875 50.398438 24.003906 50.398438 25.222656 50.519531 C 24.007812 50.507812 22.792969 50.433594 21.589844 50.332031 Z M 55.769531 43.578125 C 55.765625 43.574219 55.757812 43.570312 55.753906 43.5625 C 55.769531 43.550781 55.789062 43.535156 55.800781 43.519531 C 55.800781 43.535156 55.800781 43.546875 55.800781 43.5625 C 55.789062 43.566406 55.78125 43.574219 55.769531 43.578125 Z M 5.5 47.527344 C 5.546875 47.320312 5.667969 47.101562 5.761719 46.914062 C 5.933594 46.558594 6.144531 46.222656 6.339844 45.882812 C 6.804688 45.089844 7.277344 44.296875 7.859375 43.582031 C 8.472656 42.824219 9.1875 42.175781 9.96875 41.609375 C 10.910156 41.042969 11.855469 40.5 12.820312 39.996094 C 15.617188 38.707031 18.691406 37.867188 21.652344 37.128906 C 28.292969 35.472656 35.144531 34.746094 41.976562 34.949219 C 44.726562 35.167969 47.484375 35.550781 50.144531 36.203125 C 50.449219 36.28125 50.753906 36.363281 51.0625 36.453125 C 51.4375 36.710938 51.808594 36.984375 52.164062 37.273438 C 52.675781 37.6875 53.117188 38.238281 53.640625 38.621094 C 54.261719 39.074219 54.859375 39.167969 55.320312 39.886719 C 55.449219 40.089844 55.550781 40.292969 55.636719 40.5 C 55.800781 41.382812 55.613281 42.285156 54.851562 42.945312 C 54.648438 43.121094 54.417969 43.273438 54.175781 43.417969 C 54.25 42.859375 54.152344 42.265625 53.886719 41.730469 C 53.070312 40.089844 51.046875 39.1875 49.460938 38.480469 C 45.863281 36.875 41.796875 36.246094 37.875 36.269531 C 36.359375 36.28125 34.859375 36.390625 33.371094 36.585938 C 31.617188 36.507812 29.742188 36.859375 28.054688 37.136719 C 25.714844 37.527344 23.464844 38.164062 21.238281 38.980469 C 17.863281 40.226562 14.320312 41.585938 11.359375 43.722656 C 11.128906 43.832031 10.90625 43.949219 10.695312 44.085938 C 10.316406 44.324219 9.578125 44.789062 9.113281 45.296875 C 8.6875 45.636719 8.300781 46.015625 7.964844 46.449219 C 7.257812 47.363281 6.761719 48.804688 7.175781 49.90625 C 6.433594 49.453125 5.808594 48.859375 5.496094 48.050781 C 5.484375 48.019531 5.472656 47.984375 5.460938 47.953125 C 5.460938 47.785156 5.476562 47.628906 5.5 47.527344 Z M 31.023438 72.265625 C 30.8125 72.265625 30.601562 72.265625 30.386719 72.265625 C 29.257812 72.25 28.136719 72.144531 27.015625 72.035156 C 27.273438 72.019531 27.535156 72.007812 27.800781 72.007812 C 28.894531 72.007812 29.960938 72.125 31.023438 72.265625 Z M 43.636719 69.839844 C 42.542969 70.296875 41.402344 70.671875 40.257812 70.980469 C 40.75 70.714844 41.234375 70.4375 41.75 70.214844 C 42.324219 69.972656 42.976562 69.894531 43.636719 69.839844 Z M 47.464844 67.707031 C 46.539062 68.390625 45.527344 68.976562 44.460938 69.476562 C 43.519531 69.589844 42.558594 69.625 41.652344 70.015625 C 40.863281 70.355469 40.140625 70.835938 39.367188 71.207031 C 38.417969 71.433594 37.46875 71.621094 36.539062 71.773438 C 35.222656 71.988281 33.894531 72.140625 32.558594 72.214844 C 31.332031 71.925781 30.023438 71.835938 28.78125 71.804688 C 27.929688 71.785156 27.085938 71.832031 26.238281 71.898438 C 26.089844 71.910156 25.949219 71.917969 25.816406 71.921875 C 25.480469 71.890625 25.144531 71.867188 24.808594 71.84375 C 23.464844 71.207031 22.160156 70.480469 20.90625 69.675781 C 20.195312 69.21875 19.503906 68.738281 18.828125 68.234375 C 17.992188 67.476562 17.191406 66.660156 16.382812 65.828125 C 14.191406 63.570312 12.277344 61.097656 10.347656 58.617188 C 9.363281 57.351562 8.242188 56.15625 7.695312 54.628906 C 7.21875 53.304688 6.84375 51.945312 6.359375 50.625 C 11.671875 53.269531 17.367188 54.871094 23.363281 53.914062 C 24.429688 53.746094 25.480469 53.523438 26.53125 53.28125 C 28.625 53.140625 30.652344 52.753906 32.707031 52.308594 C 34.546875 51.910156 36.386719 51.515625 38.222656 51.113281 C 38.769531 51.027344 39.308594 50.914062 39.835938 50.761719 C 40.539062 50.617188 41.257812 50.476562 41.949219 50.269531 C 42.207031 50.242188 42.464844 50.210938 42.722656 50.183594 C 43.753906 50.226562 44.808594 50.238281 45.773438 49.851562 C 46.957031 49.371094 48.191406 48.671875 49.179688 47.867188 C 49.585938 47.535156 49.9375 47.148438 50.316406 46.789062 C 50.414062 46.738281 50.515625 46.6875 50.617188 46.636719 C 51.183594 46.34375 51.773438 46.042969 52.261719 45.636719 C 52.5625 45.488281 52.863281 45.339844 53.164062 45.183594 C 53.230469 45.148438 53.296875 45.117188 53.367188 45.082031 C 54.101562 44.785156 54.839844 44.457031 55.535156 44.066406 C 55.628906 44.429688 55.667969 44.832031 55.644531 45.003906 C 55.601562 45.3125 55.453125 45.664062 55.371094 45.96875 C 55.230469 46.488281 55.089844 47.007812 54.953125 47.527344 C 54.664062 48.605469 54.382812 49.679688 54.097656 50.757812 C 53.484375 53.085938 52.875 55.414062 52.234375 57.730469 C 51.644531 59.863281 51.1875 62.011719 49.835938 63.808594 C 49.253906 64.582031 48.597656 65.3125 48.140625 66.171875 C 47.867188 66.679688 47.703125 67.21875 47.464844 67.707031 Z M 51.941406 59.996094 C 52.210938 59.089844 52.441406 58.160156 52.695312 57.21875 C 53.453125 54.40625 54.191406 51.589844 54.929688 48.777344 C 55.09375 48.15625 55.289062 47.523438 55.46875 46.886719 C 55.382812 47.539062 55.285156 48.1875 55.171875 48.832031 C 54.707031 51.503906 54.039062 54.136719 53.179688 56.707031 C 52.804688 57.820312 52.390625 58.914062 51.941406 59.996094 Z M 68.339844 39.902344 C 67.554688 39.308594 66.652344 38.859375 65.691406 38.59375 C 64.066406 38.144531 62.285156 38.257812 60.691406 38.777344 C 59.386719 39.203125 57.84375 39.886719 56.792969 40.898438 C 56.777344 40.433594 56.691406 39.980469 56.539062 39.542969 C 58.074219 38.671875 59.722656 37.5 61.476562 37.339844 C 62.203125 37.273438 63.046875 37.15625 63.875 37.15625 C 64.703125 37.300781 65.507812 37.589844 66.253906 38.050781 C 67.058594 38.546875 67.765625 39.15625 68.339844 39.902344 Z M 70.949219 44.417969 C 70.871094 43.542969 70.605469 42.734375 70.199219 42.011719 C 69.769531 40.140625 67.921875 38.046875 66.261719 37.265625 C 66.214844 37.242188 66.164062 37.226562 66.117188 37.207031 C 66.054688 37.175781 65.988281 37.148438 65.917969 37.121094 C 64.625 36.597656 63.125 36.453125 61.75 36.5625 C 59.964844 36.707031 57.414062 37.160156 56.015625 38.46875 C 55.855469 38.214844 55.675781 37.976562 55.476562 37.75 C 53.136719 35.105469 48.875 34.703125 45.601562 34.246094 C 41.324219 33.640625 36.980469 33.425781 32.671875 33.746094 C 28.125 34.085938 23.597656 35.113281 19.222656 36.367188 C 15.117188 37.542969 10.535156 39.101562 7.433594 42.160156 C 7.363281 42.230469 7.328125 42.304688 7.3125 42.386719 C 5.390625 43.792969 3.851562 46.164062 4.613281 48.332031 C 5.523438 54.3125 9.09375 60.050781 13.0625 64.476562 C 15.191406 66.851562 17.628906 68.960938 20.308594 70.695312 C 21.667969 71.574219 23.089844 72.359375 24.558594 73.042969 C 25.859375 73.644531 27.371094 74.464844 28.832031 74.453125 C 28.890625 74.453125 28.9375 74.441406 28.984375 74.425781 C 29.421875 74.558594 29.898438 74.609375 30.355469 74.675781 C 31.226562 74.804688 32.097656 74.890625 32.976562 74.929688 C 34.898438 75.007812 36.828125 74.882812 38.726562 74.558594 C 40.445312 74.265625 42.136719 73.78125 43.71875 73.035156 C 44.695312 72.574219 46.007812 71.894531 46.785156 70.972656 C 47.820312 70.394531 48.40625 69.03125 48.992188 68.046875 C 49.675781 66.914062 50.316406 65.753906 50.910156 64.566406 C 51.273438 63.839844 51.617188 63.101562 51.949219 62.359375 C 53.953125 64.085938 57.105469 60.777344 58.367188 59.414062 C 60.855469 56.722656 64.03125 55.074219 66.796875 52.726562 C 69.191406 50.699219 71.242188 47.695312 70.949219 44.417969 " fill-opacity="1" fill-rule="nonzero"/><path fill="#603322" d="M 38.339844 14.394531 C 39.683594 12.890625 41.082031 11.367188 42.109375 9.621094 C 41.738281 10.570312 41.316406 11.496094 40.71875 12.335938 C 39.132812 14.566406 37.019531 16.53125 35.136719 18.53125 C 36.019531 17.035156 37.175781 15.695312 38.339844 14.394531 Z M 40.519531 16.246094 C 41.816406 14.464844 43.023438 12.59375 43.683594 10.523438 C 43.671875 10.578125 43.660156 10.636719 43.648438 10.695312 C 43.183594 12.8125 41.902344 14.601562 40.519531 16.246094 Z M 33.554688 26.824219 C 33.535156 26.65625 33.519531 26.484375 33.5 26.3125 C 33.660156 26.046875 33.816406 25.78125 33.972656 25.515625 C 33.808594 25.945312 33.667969 26.378906 33.554688 26.824219 Z M 33.433594 25.167969 C 33.433594 23.820312 33.585938 22.472656 33.964844 21.175781 C 34.214844 20.320312 34.574219 19.515625 35.003906 18.757812 C 36.9375 16.746094 39.117188 14.820312 40.800781 12.59375 C 41.519531 11.644531 42.015625 10.5625 42.472656 9.464844 C 42.867188 8.515625 43.320312 7.554688 43.683594 6.574219 C 43.828125 7.503906 43.894531 8.449219 43.832031 9.382812 C 43.125 12.484375 41.128906 15.128906 39.234375 17.640625 C 39.058594 17.871094 38.882812 18.101562 38.710938 18.332031 C 37.34375 19.917969 35.964844 21.625 34.929688 23.480469 C 34.382812 24.285156 33.867188 25.117188 33.472656 25.996094 C 33.453125 25.71875 33.433594 25.441406 33.433594 25.167969 Z M 33.210938 29.210938 C 33.210938 29.226562 33.210938 29.242188 33.210938 29.253906 C 33.199219 29.777344 33.957031 29.757812 34.007812 29.253906 C 34.300781 26.457031 35.402344 24.207031 37.054688 21.957031 C 38.5625 19.898438 40.390625 18.109375 41.953125 16.097656 C 43.332031 14.324219 44.386719 12.316406 44.609375 10.058594 C 44.851562 7.625 44.34375 4.578125 43.257812 2.378906 C 43.21875 2.300781 43.136719 2.273438 43.058594 2.277344 C 42.921875 2.175781 42.691406 2.25 42.65625 2.421875 C 42.535156 2.976562 42.632812 3.488281 42.648438 4.050781 C 42.671875 4.777344 42.585938 5.488281 42.417969 6.195312 C 42.105469 7.488281 41.53125 8.6875 40.808594 9.800781 C 39.378906 12.011719 37.457031 13.847656 35.847656 15.925781 C 34.402344 17.789062 33.285156 19.835938 32.871094 22.179688 C 32.65625 23.40625 32.59375 24.652344 32.65625 25.894531 C 32.707031 26.964844 32.757812 28.226562 33.210938 29.210938 " fill-opacity="1" fill-rule="nonzero"/><path fill="#603322" d="M 23.519531 6.046875 C 24.335938 7.558594 25.015625 9.132812 25.421875 10.769531 C 24.933594 9.464844 24.226562 8.210938 23.601562 6.972656 C 22.734375 5.253906 21.859375 3.238281 19.992188 2.425781 C 19.796875 2.164062 19.582031 1.910156 19.355469 1.679688 C 19.910156 1.960938 20.445312 2.285156 20.9375 2.703125 C 22.023438 3.628906 22.839844 4.800781 23.519531 6.046875 Z M 27.394531 26.285156 C 27.742188 27.027344 28.074219 27.804688 28.492188 28.519531 C 26.355469 27.503906 24.414062 25.910156 23.167969 23.921875 C 22.757812 23.265625 22.453125 22.585938 22.222656 21.886719 C 22.089844 20.222656 21.820312 18.644531 22.234375 16.984375 C 22.59375 15.539062 22.820312 14.34375 22.765625 12.832031 C 22.699219 10.953125 22.515625 8.867188 21.886719 7 C 21.789062 6.449219 21.65625 5.902344 21.484375 5.359375 C 21.175781 4.386719 20.714844 3.421875 20.105469 2.574219 C 21.789062 3.667969 22.71875 5.441406 23.570312 7.226562 C 24.09375 8.320312 24.679688 9.394531 25.164062 10.511719 C 25.453125 11.171875 25.632812 11.84375 25.746094 12.527344 C 25.832031 13.253906 25.859375 13.988281 25.816406 14.738281 C 25.734375 16.148438 25.453125 17.542969 25.472656 18.960938 C 25.488281 20.285156 25.707031 21.621094 26.082031 22.890625 C 26.421875 24.046875 26.878906 25.191406 27.394531 26.285156 Z M 21.820312 14.75 C 22.003906 12.863281 22.195312 10.949219 22.109375 9.054688 C 22.421875 10.542969 22.539062 12.070312 22.5625 13.585938 C 22.585938 15.046875 22.078125 16.265625 21.859375 17.671875 C 21.730469 18.480469 21.730469 19.316406 21.8125 20.144531 C 21.542969 18.386719 21.644531 16.554688 21.820312 14.75 Z M 21.074219 8.324219 C 21.316406 11.652344 20.472656 14.9375 20.527344 18.261719 C 20.628906 23.84375 24.160156 28.019531 29.3125 29.863281 C 29.421875 29.902344 29.519531 29.898438 29.601562 29.867188 C 29.824219 29.890625 30.035156 29.636719 29.914062 29.394531 C 29.890625 29.351562 29.867188 29.3125 29.84375 29.269531 C 29.828125 29.214844 29.800781 29.164062 29.761719 29.117188 C 29.089844 27.894531 28.167969 26.835938 27.5625 25.566406 C 26.835938 24.050781 26.375 22.402344 26.179688 20.734375 C 25.820312 17.644531 26.871094 14.628906 26.425781 11.539062 C 26.039062 8.84375 24.796875 5.929688 23.214844 3.714844 C 21.949219 1.945312 19.832031 0.00390625 17.480469 0.359375 C 17.378906 0.3125 17.273438 0.265625 17.167969 0.226562 C 16.992188 0.160156 16.828125 0.429688 16.980469 0.546875 C 19.488281 2.511719 20.847656 5.132812 21.074219 8.324219 " fill-opacity="1" fill-rule="nonzero"/><path fill="#603322" d="M 4.449219 23.585938 C 5.398438 24.804688 6.421875 25.988281 7.550781 27.027344 C 7.691406 27.15625 7.835938 27.285156 7.988281 27.414062 C 6.417969 26.640625 5.179688 25.460938 4.121094 23.929688 C 3.871094 23.570312 3.644531 23.203125 3.433594 22.832031 C 3.761719 23.105469 4.097656 23.359375 4.449219 23.585938 Z M 15.835938 26.78125 C 16.65625 27.066406 17.410156 27.449219 18.097656 27.945312 C 17.769531 27.773438 17.410156 27.644531 16.984375 27.554688 C 15.511719 27.253906 14.15625 26.609375 12.71875 26.171875 C 12.285156 26.042969 11.847656 25.921875 11.40625 25.804688 C 12.90625 26.042969 14.40625 26.28125 15.835938 26.78125 Z M 9.671875 28.050781 C 9.328125 27.957031 9 27.847656 8.683594 27.722656 C 8.148438 27.351562 7.640625 26.914062 7.128906 26.40625 C 6.304688 25.589844 5.566406 24.699219 4.820312 23.820312 C 6.054688 24.554688 7.425781 25.042969 8.867188 25.355469 C 9.371094 25.464844 9.878906 25.554688 10.386719 25.640625 C 12.078125 26.15625 13.734375 26.742188 15.410156 27.332031 C 16.621094 27.757812 17.855469 27.757812 18.882812 28.625 C 19 28.722656 19.113281 28.824219 19.226562 28.929688 C 19.6875 29.417969 20.089844 29.953125 20.457031 30.511719 C 19.050781 29.921875 17.585938 29.421875 16.121094 29.109375 C 13.988281 28.652344 11.785156 28.632812 9.671875 28.050781 Z M 7.957031 28.449219 C 10.046875 29.355469 12.351562 29.59375 14.574219 29.980469 C 17.023438 30.402344 19.144531 31.398438 21.484375 32.164062 C 22.066406 32.351562 22.472656 31.429688 21.90625 31.160156 C 21.839844 31.128906 21.769531 31.097656 21.703125 31.066406 C 21.414062 30.371094 20.886719 29.710938 20.476562 29.167969 C 19.820312 28.304688 19.050781 27.546875 18.15625 26.9375 C 16.195312 25.605469 13.847656 25.171875 11.558594 24.761719 C 9.210938 24.339844 6.785156 23.898438 4.804688 22.480469 C 3.8125 21.769531 2.957031 20.859375 2.300781 19.828125 C 1.90625 19.214844 1.664062 18.46875 1.296875 17.824219 C 1.273438 17.773438 1.253906 17.71875 1.234375 17.667969 C 1.210938 17.601562 1.160156 17.554688 1.105469 17.519531 C 0.984375 17.347656 0.851562 17.1875 0.699219 17.042969 C 0.578125 16.925781 0.378906 16.976562 0.328125 17.140625 C 0.00390625 18.222656 0.585938 19.488281 1.363281 20.578125 C 1.835938 21.820312 2.496094 23.007812 3.191406 24.066406 C 4.410156 25.925781 5.882812 27.550781 7.957031 28.449219 " fill-opacity="1" fill-rule="nonzero"/><g fill="#632f24" fill-opacity="1"><g transform="translate(63.09331, 73.446095)"><g><path d="M 11.953125 -20.84375 C 13.097656 -20.84375 14.078125 -20.675781 14.890625 -20.34375 C 15.703125 -20.019531 16.492188 -19.554688 17.265625 -18.953125 C 17.453125 -18.785156 17.632812 -18.703125 17.8125 -18.703125 C 18.195312 -18.703125 18.445312 -19.28125 18.5625 -20.4375 L 19.21875 -20.4375 C 19.144531 -19.070312 19.109375 -16.664062 19.109375 -13.21875 L 18.4375 -13.21875 C 18.300781 -14.757812 18.050781 -15.972656 17.6875 -16.859375 C 17.320312 -17.742188 16.6875 -18.484375 15.78125 -19.078125 C 14.882812 -19.648438 13.992188 -19.9375 13.109375 -19.9375 C 11.097656 -19.9375 9.6875 -18.972656 8.875 -17.046875 C 8.070312 -15.128906 7.671875 -12.832031 7.671875 -10.15625 C 7.671875 -7.476562 8.070312 -5.175781 8.875 -3.25 C 9.6875 -1.332031 11.097656 -0.375 13.109375 -0.375 C 13.992188 -0.375 14.882812 -0.660156 15.78125 -1.234375 C 16.6875 -1.796875 17.320312 -2.546875 17.6875 -3.484375 C 18.050781 -4.429688 18.300781 -5.769531 18.4375 -7.5 L 19.109375 -7.5 C 19.109375 -3.90625 19.144531 -1.40625 19.21875 0 L 18.5625 0 C 18.5 -0.613281 18.414062 -1.050781 18.3125 -1.3125 C 18.207031 -1.570312 18.054688 -1.703125 17.859375 -1.703125 C 17.710938 -1.703125 17.515625 -1.625 17.265625 -1.46875 C 16.390625 -0.851562 15.554688 -0.382812 14.765625 -0.0625 C 13.984375 0.25 13.035156 0.40625 11.921875 0.40625 C 9.742188 0.40625 7.835938 -0.00390625 6.203125 -0.828125 C 4.566406 -1.660156 3.296875 -2.859375 2.390625 -4.421875 C 1.484375 -5.992188 1.03125 -7.867188 1.03125 -10.046875 C 1.03125 -12.160156 1.492188 -14.035156 2.421875 -15.671875 C 3.347656 -17.304688 4.632812 -18.578125 6.28125 -19.484375 C 7.9375 -20.390625 9.828125 -20.84375 11.953125 -20.84375 Z M 11.953125 -20.84375 "/></g></g></g><g fill="#632f24" fill-opacity="1"><g transform="translate(86.06237, 73.446095)"><g><path d="M 11.953125 -20.84375 C 14.117188 -20.84375 16.019531 -20.425781 17.65625 -19.59375 C 19.289062 -18.769531 20.5625 -17.570312 21.46875 -16 C 22.375 -14.4375 22.828125 -12.566406 22.828125 -10.390625 C 22.828125 -8.273438 22.363281 -6.398438 21.4375 -4.765625 C 20.519531 -3.128906 19.234375 -1.859375 17.578125 -0.953125 C 15.921875 -0.046875 14.035156 0.40625 11.921875 0.40625 C 9.742188 0.40625 7.835938 -0.00390625 6.203125 -0.828125 C 4.566406 -1.660156 3.296875 -2.859375 2.390625 -4.421875 C 1.484375 -5.992188 1.03125 -7.867188 1.03125 -10.046875 C 1.03125 -12.160156 1.492188 -14.035156 2.421875 -15.671875 C 3.347656 -17.304688 4.632812 -18.578125 6.28125 -19.484375 C 7.9375 -20.390625 9.828125 -20.84375 11.953125 -20.84375 Z M 11.828125 -20.3125 C 10.890625 -20.3125 10.054688 -19.882812 9.328125 -19.03125 C 8.609375 -18.175781 8.054688 -16.976562 7.671875 -15.4375 C 7.285156 -13.894531 7.09375 -12.132812 7.09375 -10.15625 C 7.09375 -8.15625 7.3125 -6.394531 7.75 -4.875 C 8.195312 -3.351562 8.796875 -2.175781 9.546875 -1.34375 C 10.296875 -0.519531 11.125 -0.109375 12.03125 -0.109375 C 12.976562 -0.109375 13.8125 -0.535156 14.53125 -1.390625 C 15.25 -2.253906 15.800781 -3.453125 16.1875 -4.984375 C 16.570312 -6.523438 16.765625 -8.289062 16.765625 -10.28125 C 16.765625 -12.28125 16.539062 -14.035156 16.09375 -15.546875 C 15.65625 -17.066406 15.0625 -18.238281 14.3125 -19.0625 C 13.5625 -19.894531 12.734375 -20.3125 11.828125 -20.3125 Z M 11.828125 -20.3125 "/></g></g></g><g fill="#632f24" fill-opacity="1"><g transform="translate(112.205408, 73.446095)"><g><path d="M 16.1875 -19.859375 L 7.453125 -0.65625 L 8.65625 -0.65625 C 9.445312 -0.65625 10.351562 -0.878906 11.375 -1.328125 C 12.394531 -1.785156 13.316406 -2.53125 14.140625 -3.5625 C 14.960938 -4.59375 15.460938 -5.90625 15.640625 -7.5 L 16.3125 -7.5 C 16.25 -6.8125 16.21875 -5.925781 16.21875 -4.84375 C 16.21875 -2.882812 16.285156 -1.269531 16.421875 0 C 14.992188 -0.0625 12.597656 -0.09375 9.234375 -0.09375 C 5.484375 -0.09375 2.757812 -0.0625 1.0625 0 L 1.0625 -0.578125 L 9.8125 -19.765625 L 8.375 -19.765625 C 7.46875 -19.765625 6.5625 -19.566406 5.65625 -19.171875 C 4.75 -18.773438 3.945312 -18.109375 3.25 -17.171875 C 2.5625 -16.242188 2.113281 -15.019531 1.90625 -13.5 L 1.234375 -13.5 C 1.296875 -14 1.328125 -14.691406 1.328125 -15.578125 C 1.328125 -17.003906 1.257812 -18.625 1.125 -20.4375 C 2.320312 -20.375 4.332031 -20.34375 7.15625 -20.34375 C 11.3125 -20.34375 14.320312 -20.375 16.1875 -20.4375 Z M 16.1875 -19.859375 "/></g></g></g><g fill="#632f24" fill-opacity="1"><g transform="translate(132.00049, 73.446095)"><g><path d="M 16.125 -20.375 C 17.03125 -20.375 17.773438 -20.40625 18.359375 -20.46875 L 18.359375 -19.890625 C 17.367188 -19.398438 16.347656 -18.117188 15.296875 -16.046875 L 12.609375 -10.734375 L 12.609375 -3.0625 C 12.609375 -2.332031 12.660156 -1.800781 12.765625 -1.46875 C 12.867188 -1.144531 13.054688 -0.925781 13.328125 -0.8125 C 13.597656 -0.695312 14.039062 -0.617188 14.65625 -0.578125 L 14.65625 0 C 13.539062 -0.0625 11.890625 -0.09375 9.703125 -0.09375 C 7.410156 -0.09375 5.742188 -0.0625 4.703125 0 L 4.703125 -0.578125 C 5.316406 -0.617188 5.765625 -0.695312 6.046875 -0.8125 C 6.328125 -0.925781 6.515625 -1.144531 6.609375 -1.46875 C 6.703125 -1.800781 6.75 -2.332031 6.75 -3.0625 L 6.75 -8.375 L 1.421875 -18.234375 C 1.109375 -18.796875 0.804688 -19.207031 0.515625 -19.46875 C 0.234375 -19.726562 -0.0234375 -19.859375 -0.265625 -19.859375 L -0.265625 -20.46875 C 0.929688 -20.34375 2.257812 -20.28125 3.71875 -20.28125 C 5.375 -20.28125 7.492188 -20.34375 10.078125 -20.46875 L 10.078125 -19.859375 C 9.304688 -19.859375 8.726562 -19.816406 8.34375 -19.734375 C 7.957031 -19.660156 7.765625 -19.476562 7.765625 -19.1875 C 7.765625 -19.050781 7.800781 -18.910156 7.875 -18.765625 L 12 -10.84375 L 13.296875 -13.453125 C 14.203125 -15.253906 14.65625 -16.6875 14.65625 -17.75 C 14.65625 -19.113281 13.890625 -19.828125 12.359375 -19.890625 L 12.359375 -20.46875 C 13.796875 -20.40625 15.050781 -20.375 16.125 -20.375 Z M 16.125 -20.375 "/></g></g></g><g fill="#632f24" fill-opacity="1"><g transform="translate(152.863186, 73.446095)"><g/></g></g><g fill="#632f24" fill-opacity="1"><g transform="translate(161.578211, 73.446095)"><g><path d="M 11.953125 -20.84375 C 13.097656 -20.84375 14.078125 -20.675781 14.890625 -20.34375 C 15.703125 -20.019531 16.492188 -19.554688 17.265625 -18.953125 C 17.453125 -18.785156 17.632812 -18.703125 17.8125 -18.703125 C 18.195312 -18.703125 18.445312 -19.28125 18.5625 -20.4375 L 19.21875 -20.4375 C 19.144531 -19.070312 19.109375 -16.664062 19.109375 -13.21875 L 18.4375 -13.21875 C 18.300781 -14.757812 18.050781 -15.972656 17.6875 -16.859375 C 17.320312 -17.742188 16.6875 -18.484375 15.78125 -19.078125 C 14.882812 -19.648438 13.992188 -19.9375 13.109375 -19.9375 C 11.097656 -19.9375 9.6875 -18.972656 8.875 -17.046875 C 8.070312 -15.128906 7.671875 -12.832031 7.671875 -10.15625 C 7.671875 -7.476562 8.070312 -5.175781 8.875 -3.25 C 9.6875 -1.332031 11.097656 -0.375 13.109375 -0.375 C 13.992188 -0.375 14.882812 -0.660156 15.78125 -1.234375 C 16.6875 -1.796875 17.320312 -2.546875 17.6875 -3.484375 C 18.050781 -4.429688 18.300781 -5.769531 18.4375 -7.5 L 19.109375 -7.5 C 19.109375 -3.90625 19.144531 -1.40625 19.21875 0 L 18.5625 0 C 18.5 -0.613281 18.414062 -1.050781 18.3125 -1.3125 C 18.207031 -1.570312 18.054688 -1.703125 17.859375 -1.703125 C 17.710938 -1.703125 17.515625 -1.625 17.265625 -1.46875 C 16.390625 -0.851562 15.554688 -0.382812 14.765625 -0.0625 C 13.984375 0.25 13.035156 0.40625 11.921875 0.40625 C 9.742188 0.40625 7.835938 -0.00390625 6.203125 -0.828125 C 4.566406 -1.660156 3.296875 -2.859375 2.390625 -4.421875 C 1.484375 -5.992188 1.03125 -7.867188 1.03125 -10.046875 C 1.03125 -12.160156 1.492188 -14.035156 2.421875 -15.671875 C 3.347656 -17.304688 4.632812 -18.578125 6.28125 -19.484375 C 7.9375 -20.390625 9.828125 -20.84375 11.953125 -20.84375 Z M 11.953125 -20.84375 "/></g></g></g><g fill="#632f24" fill-opacity="1"><g transform="translate(184.547273, 73.446095)"><g><path d="M 11.953125 -20.84375 C 14.117188 -20.84375 16.019531 -20.425781 17.65625 -19.59375 C 19.289062 -18.769531 20.5625 -17.570312 21.46875 -16 C 22.375 -14.4375 22.828125 -12.566406 22.828125 -10.390625 C 22.828125 -8.273438 22.363281 -6.398438 21.4375 -4.765625 C 20.519531 -3.128906 19.234375 -1.859375 17.578125 -0.953125 C 15.921875 -0.046875 14.035156 0.40625 11.921875 0.40625 C 9.742188 0.40625 7.835938 -0.00390625 6.203125 -0.828125 C 4.566406 -1.660156 3.296875 -2.859375 2.390625 -4.421875 C 1.484375 -5.992188 1.03125 -7.867188 1.03125 -10.046875 C 1.03125 -12.160156 1.492188 -14.035156 2.421875 -15.671875 C 3.347656 -17.304688 4.632812 -18.578125 6.28125 -19.484375 C 7.9375 -20.390625 9.828125 -20.84375 11.953125 -20.84375 Z M 11.828125 -20.3125 C 10.890625 -20.3125 10.054688 -19.882812 9.328125 -19.03125 C 8.609375 -18.175781 8.054688 -16.976562 7.671875 -15.4375 C 7.285156 -13.894531 7.09375 -12.132812 7.09375 -10.15625 C 7.09375 -8.15625 7.3125 -6.394531 7.75 -4.875 C 8.195312 -3.351562 8.796875 -2.175781 9.546875 -1.34375 C 10.296875 -0.519531 11.125 -0.109375 12.03125 -0.109375 C 12.976562 -0.109375 13.8125 -0.535156 14.53125 -1.390625 C 15.25 -2.253906 15.800781 -3.453125 16.1875 -4.984375 C 16.570312 -6.523438 16.765625 -8.289062 16.765625 -10.28125 C 16.765625 -12.28125 16.539062 -14.035156 16.09375 -15.546875 C 15.65625 -17.066406 15.0625 -18.238281 14.3125 -19.0625 C 13.5625 -19.894531 12.734375 -20.3125 11.828125 -20.3125 Z M 11.828125 -20.3125 "/></g></g></g><g fill="#632f24" fill-opacity="1"><g transform="translate(210.690304, 73.446095)"><g><path d="M 16.9375 -20.4375 C 16.800781 -18.625 16.734375 -17.003906 16.734375 -15.578125 C 16.734375 -14.691406 16.765625 -14 16.828125 -13.5 L 16.15625 -13.5 C 15.695312 -15.738281 14.988281 -17.34375 14.03125 -18.3125 C 13.082031 -19.28125 12.019531 -19.765625 10.84375 -19.765625 L 10.46875 -19.765625 C 9.957031 -19.765625 9.578125 -19.722656 9.328125 -19.640625 C 9.085938 -19.554688 8.925781 -19.390625 8.84375 -19.140625 C 8.757812 -18.898438 8.71875 -18.503906 8.71875 -17.953125 L 8.71875 -10.5625 L 9 -10.5625 C 10 -10.5625 10.851562 -10.953125 11.5625 -11.734375 C 12.28125 -12.523438 12.734375 -13.40625 12.921875 -14.375 L 13.59375 -14.375 C 13.53125 -13.5625 13.5 -12.65625 13.5 -11.65625 L 13.5 -10.28125 C 13.5 -9.289062 13.554688 -7.921875 13.671875 -6.171875 L 13.015625 -6.171875 C 12.835938 -7.273438 12.390625 -8.1875 11.671875 -8.90625 C 10.953125 -9.625 10.0625 -9.984375 9 -9.984375 L 8.71875 -9.984375 L 8.71875 -3.34375 C 8.71875 -2.539062 8.796875 -1.953125 8.953125 -1.578125 C 9.117188 -1.210938 9.414062 -0.96875 9.84375 -0.84375 C 10.28125 -0.71875 10.972656 -0.65625 11.921875 -0.65625 L 11.921875 0 C 9.316406 -0.0625 7.332031 -0.09375 5.96875 -0.09375 C 5.070312 -0.09375 3.8125 -0.0703125 2.1875 -0.03125 L 0.8125 0 L 0.8125 -0.578125 C 1.425781 -0.617188 1.867188 -0.695312 2.140625 -0.8125 C 2.421875 -0.925781 2.609375 -1.144531 2.703125 -1.46875 C 2.804688 -1.800781 2.859375 -2.332031 2.859375 -3.0625 L 2.859375 -17.375 C 2.859375 -18.101562 2.804688 -18.628906 2.703125 -18.953125 C 2.597656 -19.285156 2.410156 -19.507812 2.140625 -19.625 C 1.867188 -19.738281 1.425781 -19.816406 0.8125 -19.859375 L 0.8125 -20.4375 C 3.039062 -20.375 6.40625 -20.34375 10.90625 -20.34375 C 13.738281 -20.34375 15.75 -20.375 16.9375 -20.4375 Z M 16.9375 -20.4375 "/></g></g></g><g fill="#632f24" fill-opacity="1"><g transform="translate(230.514247, 73.446095)"><g><path d="M 16.9375 -20.4375 C 16.800781 -18.625 16.734375 -17.003906 16.734375 -15.578125 C 16.734375 -14.691406 16.765625 -14 16.828125 -13.5 L 16.15625 -13.5 C 15.695312 -15.738281 14.988281 -17.34375 14.03125 -18.3125 C 13.082031 -19.28125 12.019531 -19.765625 10.84375 -19.765625 L 10.46875 -19.765625 C 9.957031 -19.765625 9.578125 -19.722656 9.328125 -19.640625 C 9.085938 -19.554688 8.925781 -19.390625 8.84375 -19.140625 C 8.757812 -18.898438 8.71875 -18.503906 8.71875 -17.953125 L 8.71875 -10.5625 L 9 -10.5625 C 10 -10.5625 10.851562 -10.953125 11.5625 -11.734375 C 12.28125 -12.523438 12.734375 -13.40625 12.921875 -14.375 L 13.59375 -14.375 C 13.53125 -13.5625 13.5 -12.65625 13.5 -11.65625 L 13.5 -10.28125 C 13.5 -9.289062 13.554688 -7.921875 13.671875 -6.171875 L 13.015625 -6.171875 C 12.835938 -7.273438 12.390625 -8.1875 11.671875 -8.90625 C 10.953125 -9.625 10.0625 -9.984375 9 -9.984375 L 8.71875 -9.984375 L 8.71875 -3.34375 C 8.71875 -2.539062 8.796875 -1.953125 8.953125 -1.578125 C 9.117188 -1.210938 9.414062 -0.96875 9.84375 -0.84375 C 10.28125 -0.71875 10.972656 -0.65625 11.921875 -0.65625 L 11.921875 0 C 9.316406 -0.0625 7.332031 -0.09375 5.96875 -0.09375 C 5.070312 -0.09375 3.8125 -0.0703125 2.1875 -0.03125 L 0.8125 0 L 0.8125 -0.578125 C 1.425781 -0.617188 1.867188 -0.695312 2.140625 -0.8125 C 2.421875 -0.925781 2.609375 -1.144531 2.703125 -1.46875 C 2.804688 -1.800781 2.859375 -2.332031 2.859375 -3.0625 L 2.859375 -17.375 C 2.859375 -18.101562 2.804688 -18.628906 2.703125 -18.953125 C 2.597656 -19.285156 2.410156 -19.507812 2.140625 -19.625 C 1.867188 -19.738281 1.425781 -19.816406 0.8125 -19.859375 L 0.8125 -20.4375 C 3.039062 -20.375 6.40625 -20.34375 10.90625 -20.34375 C 13.738281 -20.34375 15.75 -20.375 16.9375 -20.4375 Z M 16.9375 -20.4375 "/></g></g></g><g fill="#632f24" fill-opacity="1"><g transform="translate(250.338189, 73.446095)"><g><path d="M 17.3125 -4.84375 C 17.3125 -2.882812 17.378906 -1.269531 17.515625 0 C 16.210938 -0.0625 14.007812 -0.09375 10.90625 -0.09375 C 6.40625 -0.09375 3.039062 -0.0625 0.8125 0 L 0.8125 -0.578125 C 1.425781 -0.617188 1.867188 -0.695312 2.140625 -0.8125 C 2.421875 -0.925781 2.609375 -1.144531 2.703125 -1.46875 C 2.804688 -1.800781 2.859375 -2.332031 2.859375 -3.0625 L 2.859375 -17.375 C 2.859375 -18.101562 2.804688 -18.628906 2.703125 -18.953125 C 2.597656 -19.285156 2.410156 -19.507812 2.140625 -19.625 C 1.867188 -19.738281 1.425781 -19.816406 0.8125 -19.859375 L 0.8125 -20.4375 C 3.039062 -20.375 6.40625 -20.34375 10.90625 -20.34375 C 13.738281 -20.34375 15.75 -20.375 16.9375 -20.4375 C 16.800781 -18.625 16.734375 -17.003906 16.734375 -15.578125 C 16.734375 -14.691406 16.765625 -14 16.828125 -13.5 L 16.15625 -13.5 C 15.8125 -15.738281 15.164062 -17.34375 14.21875 -18.3125 C 13.28125 -19.28125 12.15625 -19.765625 10.84375 -19.765625 L 10.46875 -19.765625 C 9.957031 -19.765625 9.578125 -19.722656 9.328125 -19.640625 C 9.085938 -19.554688 8.925781 -19.390625 8.84375 -19.140625 C 8.757812 -18.898438 8.71875 -18.503906 8.71875 -17.953125 L 8.71875 -10.5625 L 9 -10.5625 C 10 -10.5625 10.851562 -10.953125 11.5625 -11.734375 C 12.28125 -12.523438 12.734375 -13.40625 12.921875 -14.375 L 13.59375 -14.375 C 13.53125 -13.5625 13.5 -12.65625 13.5 -11.65625 L 13.5 -10.28125 C 13.5 -9.289062 13.554688 -7.921875 13.671875 -6.171875 L 13.015625 -6.171875 C 12.835938 -7.273438 12.390625 -8.1875 11.671875 -8.90625 C 10.953125 -9.625 10.0625 -9.984375 9 -9.984375 L 8.71875 -9.984375 L 8.71875 -2.484375 C 8.71875 -1.921875 8.757812 -1.519531 8.84375 -1.28125 C 8.925781 -1.039062 9.085938 -0.875 9.328125 -0.78125 C 9.578125 -0.695312 9.957031 -0.65625 10.46875 -0.65625 L 11.421875 -0.65625 C 12.546875 -0.65625 13.609375 -1.195312 14.609375 -2.28125 C 15.609375 -3.375 16.316406 -5.113281 16.734375 -7.5 L 17.40625 -7.5 C 17.34375 -6.8125 17.3125 -5.925781 17.3125 -4.84375 Z M 17.3125 -4.84375 "/></g></g></g><g fill="#632f24" fill-opacity="1"><g transform="translate(271.374006, 73.446095)"><g><path d="M 17.3125 -4.84375 C 17.3125 -2.882812 17.378906 -1.269531 17.515625 0 C 16.210938 -0.0625 14.007812 -0.09375 10.90625 -0.09375 C 6.40625 -0.09375 3.039062 -0.0625 0.8125 0 L 0.8125 -0.578125 C 1.425781 -0.617188 1.867188 -0.695312 2.140625 -0.8125 C 2.421875 -0.925781 2.609375 -1.144531 2.703125 -1.46875 C 2.804688 -1.800781 2.859375 -2.332031 2.859375 -3.0625 L 2.859375 -17.375 C 2.859375 -18.101562 2.804688 -18.628906 2.703125 -18.953125 C 2.597656 -19.285156 2.410156 -19.507812 2.140625 -19.625 C 1.867188 -19.738281 1.425781 -19.816406 0.8125 -19.859375 L 0.8125 -20.4375 C 3.039062 -20.375 6.40625 -20.34375 10.90625 -20.34375 C 13.738281 -20.34375 15.75 -20.375 16.9375 -20.4375 C 16.800781 -18.625 16.734375 -17.003906 16.734375 -15.578125 C 16.734375 -14.691406 16.765625 -14 16.828125 -13.5 L 16.15625 -13.5 C 15.8125 -15.738281 15.164062 -17.34375 14.21875 -18.3125 C 13.28125 -19.28125 12.15625 -19.765625 10.84375 -19.765625 L 10.46875 -19.765625 C 9.957031 -19.765625 9.578125 -19.722656 9.328125 -19.640625 C 9.085938 -19.554688 8.925781 -19.390625 8.84375 -19.140625 C 8.757812 -18.898438 8.71875 -18.503906 8.71875 -17.953125 L 8.71875 -10.5625 L 9 -10.5625 C 10 -10.5625 10.851562 -10.953125 11.5625 -11.734375 C 12.28125 -12.523438 12.734375 -13.40625 12.921875 -14.375 L 13.59375 -14.375 C 13.53125 -13.5625 13.5 -12.65625 13.5 -11.65625 L 13.5 -10.28125 C 13.5 -9.289062 13.554688 -7.921875 13.671875 -6.171875 L 13.015625 -6.171875 C 12.835938 -7.273438 12.390625 -8.1875 11.671875 -8.90625 C 10.953125 -9.625 10.0625 -9.984375 9 -9.984375 L 8.71875 -9.984375 L 8.71875 -2.484375 C 8.71875 -1.921875 8.757812 -1.519531 8.84375 -1.28125 C 8.925781 -1.039062 9.085938 -0.875 9.328125 -0.78125 C 9.578125 -0.695312 9.957031 -0.65625 10.46875 -0.65625 L 11.421875 -0.65625 C 12.546875 -0.65625 13.609375 -1.195312 14.609375 -2.28125 C 15.609375 -3.375 16.316406 -5.113281 16.734375 -7.5 L 17.40625 -7.5 C 17.34375 -6.8125 17.3125 -5.925781 17.3125 -4.84375 Z M 17.3125 -4.84375 "/></g></g></g></svg>