<svg xmlns="http://www.w3.org/2000/svg" xmlns:xlink="http://www.w3.org/1999/xlink" width="300" zoomAndPan="magnify" viewBox="0 0 224.87999 149.999998" height="200" preserveAspectRatio="xMidYMid meet" version="1.0"><defs><g/><clipPath id="b06d584717"><path d="M 0 148 L 224.761719 148 L 224.761719 149.960938 L 0 149.960938 Z M 0 148 " clip-rule="nonzero"/></clipPath><clipPath id="2ff5b6da4b"><path d="M 79 33 L 143.28125 33 L 143.28125 72.832031 L 79 72.832031 Z M 79 33 " clip-rule="nonzero"/></clipPath><clipPath id="689c7bd27e"><path d="M 75.070312 17 L 97 17 L 97 32 L 75.070312 32 Z M 75.070312 17 " clip-rule="nonzero"/></clipPath></defs><path stroke-linecap="round" transform="matrix(0.748314, 0, 0, 0.7496, 147.630618, 65.117649)" fill="none" stroke-linejoin="miter" d="M 0.999966 0.999918 L 99.173814 0.999918 " stroke="#632f24" stroke-width="2" stroke-opacity="1" stroke-miterlimit="4"/><path stroke-linecap="round" transform="matrix(0.748756, 0, 0, 0.7496, 0, 65.117649)" fill="none" stroke-linejoin="miter" d="M 1.001662 0.999918 L 96.107364 0.999918 " stroke="#632f24" stroke-width="2" stroke-opacity="1" stroke-miterlimit="4"/><g clip-path="url(#b06d584717)"><path stroke-linecap="round" transform="matrix(0.749258, 0, 0, 0.7496, 0.000000000000021305, 148.460791)" fill="none" stroke-linejoin="miter" d="M 1.000991 1.000729 L 307.147691 1.000729 " stroke="#632f24" stroke-width="2" stroke-opacity="1" stroke-miterlimit="4"/></g><g clip-path="url(#2ff5b6da4b)"><path fill="#603322" d="M 140.878906 47.449219 C 140.636719 47.855469 140.367188 48.234375 140.082031 48.59375 C 140.167969 48.359375 140.253906 48.117188 140.351562 47.871094 C 140.695312 47.011719 141.214844 46.304688 141.363281 45.375 C 141.507812 44.4375 141.367188 43.453125 141.15625 42.535156 C 140.472656 39.582031 137.738281 38.71875 135.003906 38.660156 C 136.234375 38.539062 137.476562 38.695312 138.625 39.214844 C 140.015625 39.839844 141.21875 40.960938 141.710938 42.429688 C 142.289062 44.160156 141.78125 45.9375 140.878906 47.449219 Z M 129.660156 57.507812 C 128.789062 58.445312 126.699219 60.820312 125.277344 59.613281 C 125.691406 58.625 126.078125 57.621094 126.433594 56.613281 C 126.867188 57.113281 127.789062 57.046875 128.394531 56.8125 C 129.734375 56.289062 130.859375 55.148438 131.535156 53.894531 C 131.71875 53.554688 131.851562 53.175781 132.082031 52.859375 C 132.414062 52.398438 132.90625 52.125 133.359375 51.804688 C 134.035156 51.328125 134.683594 50.808594 135.292969 50.253906 C 136.507812 49.144531 137.652344 47.867188 138.511719 46.457031 C 139.195312 45.335938 139.472656 44.019531 138.617188 42.910156 C 137.785156 41.832031 136.378906 41.464844 135.074219 41.628906 C 133.597656 41.816406 131.960938 42.53125 130.722656 43.351562 C 130.136719 43.738281 129.554688 44.21875 129.179688 44.804688 C 129.207031 44.558594 129.238281 44.3125 129.261719 44.066406 C 129.316406 43.519531 129.378906 42.953125 129.421875 42.386719 C 129.421875 42.386719 129.421875 42.382812 129.421875 42.382812 C 129.488281 42.335938 129.480469 42.25 129.433594 42.207031 C 129.460938 41.769531 129.464844 41.332031 129.4375 40.902344 C 130.015625 40.609375 130.539062 40.222656 131.109375 39.910156 C 131.9375 39.457031 132.816406 39.109375 133.730469 38.882812 C 133.820312 38.859375 133.910156 38.839844 134 38.820312 C 135.09375 38.734375 136.191406 38.699219 137.265625 38.992188 C 138.175781 39.242188 139.144531 39.824219 139.828125 40.484375 C 140.648438 41.277344 140.914062 42.316406 141.074219 43.410156 C 141.214844 44.382812 141.222656 45.34375 140.855469 46.269531 C 140.582031 46.957031 140.1875 47.566406 139.957031 48.273438 C 139.835938 48.648438 139.683594 48.96875 139.5 49.265625 C 137.671875 51.230469 135.246094 52.597656 133.117188 54.230469 C 131.835938 55.210938 130.753906 56.332031 129.660156 57.507812 Z M 121.214844 65.484375 C 121.160156 65.480469 121.105469 65.484375 121.050781 65.5 C 121.25 64.984375 121.445312 64.472656 121.753906 63.996094 C 122.082031 63.488281 122.472656 63.019531 122.84375 62.535156 C 122.882812 62.484375 122.917969 62.433594 122.957031 62.382812 C 122.9375 62.417969 122.917969 62.457031 122.902344 62.492188 C 122.371094 63.507812 121.808594 64.503906 121.214844 65.484375 Z M 116.523438 70.003906 C 115.074219 70.738281 113.488281 71.203125 111.894531 71.507812 C 110.21875 71.828125 108.496094 71.941406 106.789062 71.90625 C 105.988281 71.886719 105.183594 71.839844 104.386719 71.757812 C 103.867188 71.707031 103.335938 71.578125 102.8125 71.566406 C 102.339844 71.238281 101.808594 70.988281 101.257812 70.765625 C 102.289062 70.902344 103.332031 70.957031 104.339844 70.984375 C 106.394531 71.042969 108.445312 70.933594 110.476562 70.609375 C 112.519531 70.28125 114.542969 69.789062 116.492188 69.089844 C 117.496094 68.726562 118.636719 68.339844 119.65625 67.796875 C 119.152344 68.128906 118.730469 68.589844 118.242188 68.949219 C 117.699219 69.347656 117.121094 69.699219 116.523438 70.003906 Z M 88.382812 62.132812 C 86.796875 60.4375 85.390625 58.574219 84.179688 56.59375 C 84.289062 56.730469 84.398438 56.867188 84.503906 57.003906 C 86.382812 59.453125 88.230469 61.90625 90.394531 64.109375 C 89.699219 63.476562 89.023438 62.820312 88.382812 62.132812 Z M 82.488281 42.046875 C 82.554688 42.046875 82.625 42.027344 82.695312 41.984375 C 82.871094 41.871094 83.050781 41.757812 83.230469 41.648438 C 82.429688 42.4375 81.753906 43.335938 81.175781 44.332031 C 80.875 44.851562 80.375 45.589844 80.164062 46.3125 C 79.96875 44.660156 81.363281 43.171875 82.488281 42.046875 Z M 101.511719 34.949219 C 104.238281 34.429688 107.019531 34.203125 109.796875 34.191406 C 108.539062 34.25 107.28125 34.34375 106.039062 34.464844 C 102.191406 34.835938 98.386719 35.53125 94.652344 36.539062 C 93.816406 36.761719 92.960938 36.992188 92.101562 37.242188 C 95.167969 36.265625 98.351562 35.554688 101.511719 34.949219 Z M 127.902344 38.542969 C 127.800781 38.4375 127.695312 38.34375 127.585938 38.261719 C 127.414062 38.132812 127.230469 38.070312 127.046875 37.972656 C 126.453125 37.652344 126.058594 37.226562 125.554688 36.800781 C 125.222656 36.519531 124.875 36.265625 124.515625 36.03125 C 125.480469 36.371094 126.40625 36.835938 127.144531 37.546875 C 127.433594 37.828125 127.695312 38.167969 127.902344 38.542969 Z M 135.453125 36.421875 C 135.117188 36.464844 134.816406 36.511719 134.574219 36.53125 C 132.570312 36.714844 130.898438 37.746094 129.160156 38.699219 C 129.101562 38.546875 129.035156 38.394531 128.960938 38.246094 C 130.84375 37.074219 133.210938 36.261719 135.453125 36.421875 Z M 131.878906 51.816406 C 131.421875 52.050781 130.992188 52.363281 130.582031 52.652344 C 130.121094 52.980469 129.417969 53.542969 128.808594 53.699219 C 128.574219 53.679688 128.355469 53.617188 128.136719 53.441406 C 127.882812 53.238281 127.730469 52.933594 127.683594 52.617188 C 128.113281 51.023438 128.472656 49.410156 128.753906 47.785156 C 128.863281 47.15625 128.960938 46.523438 129.046875 45.890625 C 130.082031 43.96875 132.429688 42.964844 134.496094 42.519531 C 135.746094 42.246094 137.273438 42.371094 138.050781 43.550781 C 138.867188 44.796875 137.714844 46.238281 136.964844 47.214844 C 136.25 48.140625 135.453125 49 134.578125 49.773438 C 133.730469 50.523438 132.714844 51.066406 131.878906 51.816406 Z M 127.902344 56.050781 C 127.6875 56.0625 127.476562 56.027344 127.289062 55.835938 C 127.09375 55.636719 127.03125 55.429688 127.027344 55.152344 C 127.027344 55.03125 127.046875 54.902344 127.050781 54.777344 C 127.1875 54.34375 127.320312 53.90625 127.445312 53.472656 C 127.675781 53.980469 128.320312 54.332031 128.902344 54.285156 C 129.566406 54.226562 130.089844 53.769531 130.601562 53.398438 C 130.699219 53.328125 130.800781 53.257812 130.902344 53.195312 C 130.691406 53.59375 130.484375 54 130.195312 54.351562 C 130.035156 54.550781 128.785156 55.683594 127.902344 56.050781 Z M 80.929688 49.328125 C 81.027344 49.710938 81.132812 50.09375 81.238281 50.476562 C 81.085938 50.074219 80.9375 49.667969 80.792969 49.257812 C 80.839844 49.28125 80.882812 49.304688 80.929688 49.328125 Z M 80.75 49 C 80.730469 48.988281 80.710938 48.976562 80.6875 48.96875 C 80.683594 48.957031 80.679688 48.941406 80.675781 48.929688 C 80.699219 48.953125 80.726562 48.976562 80.75 49 Z M 116.507812 48.726562 C 116.757812 48.644531 117.015625 48.542969 117.273438 48.445312 C 118.3125 48.050781 119.332031 47.613281 120.347656 47.160156 C 121.015625 46.859375 121.679688 46.542969 122.335938 46.21875 C 121.46875 46.925781 120.570312 47.5 119.558594 48.027344 C 118.78125 48.429688 118.058594 48.683594 117.179688 48.722656 C 116.953125 48.730469 116.730469 48.726562 116.507812 48.726562 Z M 90.128906 51.722656 C 91.511719 51.859375 92.90625 51.910156 94.296875 51.855469 C 94.992188 51.976562 95.738281 51.992188 96.40625 52.027344 C 97.160156 52.066406 97.917969 52.074219 98.671875 52.0625 C 95.511719 52.730469 92.367188 52.75 89.195312 52.109375 C 87.6875 51.804688 86.246094 51.355469 84.839844 50.816406 C 86.574219 51.246094 88.351562 51.542969 90.128906 51.722656 Z M 83.648438 45.714844 C 83.535156 45.851562 83.425781 45.992188 83.320312 46.132812 C 83.417969 45.992188 83.527344 45.851562 83.648438 45.714844 Z M 107.894531 36.960938 C 107.910156 36.957031 107.929688 36.953125 107.949219 36.949219 C 107.964844 36.945312 107.980469 36.9375 107.996094 36.929688 C 111.074219 36.617188 114.175781 36.703125 117.226562 37.363281 C 114.128906 37.148438 111 37.023438 107.894531 36.960938 Z M 107.75 39.140625 C 107.855469 39.117188 107.960938 39.09375 108.0625 39.066406 C 108.152344 39.074219 108.246094 39.082031 108.335938 39.085938 C 108.140625 39.101562 107.945312 39.121094 107.75 39.140625 Z M 117.480469 39.5 C 117.175781 39.445312 116.871094 39.394531 116.5625 39.34375 C 117.234375 39.429688 117.894531 39.550781 118.546875 39.726562 C 118.125 39.625 117.75 39.550781 117.480469 39.5 Z M 93.40625 48.90625 C 93.648438 48.949219 93.886719 48.988281 94.125 49.019531 C 93.410156 48.953125 92.695312 48.886719 91.980469 48.828125 C 92.457031 48.804688 92.933594 48.8125 93.40625 48.90625 Z M 92.332031 42.375 C 92.28125 42.40625 92.230469 42.441406 92.183594 42.472656 C 92.179688 42.445312 92.175781 42.417969 92.167969 42.390625 C 92.3125 42.328125 92.457031 42.265625 92.601562 42.207031 C 92.511719 42.261719 92.421875 42.316406 92.332031 42.375 Z M 97.972656 41.578125 C 96.621094 42.125 95.289062 42.765625 94.046875 43.539062 C 95.042969 42.835938 96.125 42.242188 97.203125 41.6875 C 97.257812 41.660156 97.3125 41.632812 97.367188 41.601562 C 97.492188 41.5625 97.613281 41.523438 97.734375 41.484375 C 98.390625 41.292969 99.046875 41.109375 99.703125 40.929688 C 99.121094 41.132812 98.542969 41.347656 97.972656 41.578125 Z M 114.597656 46.5625 C 114.605469 46.566406 114.613281 46.5625 114.621094 46.566406 C 114.609375 46.566406 114.597656 46.570312 114.585938 46.570312 C 114.589844 46.570312 114.59375 46.566406 114.597656 46.5625 Z M 113.863281 46.691406 C 113.949219 46.636719 114.027344 46.578125 114.109375 46.515625 C 114.105469 46.570312 114.132812 46.625 114.179688 46.664062 C 114.011719 46.710938 113.839844 46.757812 113.671875 46.8125 C 113.738281 46.773438 113.800781 46.734375 113.863281 46.691406 Z M 102.421875 48.160156 C 103.703125 48.101562 104.996094 47.992188 106.277344 47.804688 C 105.839844 47.90625 105.398438 48.007812 104.957031 48.105469 C 104.003906 48.316406 103.03125 48.527344 102.046875 48.46875 C 101.382812 48.429688 100.726562 48.28125 100.066406 48.167969 C 100.855469 48.1875 101.640625 48.195312 102.421875 48.160156 Z M 116.160156 42.210938 C 116.550781 42.378906 116.839844 42.617188 116.953125 42.957031 C 116.777344 42.671875 116.492188 42.414062 116.160156 42.210938 Z M 115.683594 45.078125 C 115.917969 44.878906 116.09375 44.664062 116.21875 44.4375 C 116.28125 44.46875 116.347656 44.476562 116.414062 44.472656 C 115.996094 44.949219 115.425781 45.398438 114.933594 45.78125 C 115.183594 45.539062 115.425781 45.300781 115.683594 45.078125 Z M 103.808594 46.644531 C 104.472656 46.519531 105.121094 46.308594 105.804688 46.269531 C 106.125 46.253906 106.515625 46.28125 106.9375 46.316406 C 106.535156 46.394531 106.132812 46.460938 105.726562 46.523438 C 105.089844 46.59375 104.445312 46.632812 103.808594 46.644531 Z M 95.554688 47 C 95.550781 47 95.550781 47 95.550781 47 C 95.550781 47 95.550781 47 95.554688 47 Z M 108.945312 45.058594 C 108.9375 45.058594 108.925781 45.058594 108.917969 45.0625 C 108.863281 45.070312 108.808594 45.074219 108.753906 45.078125 C 108.816406 45.070312 108.878906 45.0625 108.945312 45.058594 Z M 111.753906 44.046875 C 112.035156 44.027344 112.316406 44.003906 112.597656 43.984375 C 112.394531 44.039062 112.191406 44.078125 111.988281 44.078125 C 111.90625 44.078125 111.832031 44.0625 111.753906 44.046875 Z M 119.5625 40.371094 C 120.75 40.710938 122.285156 41.648438 120.945312 42.980469 C 120.425781 43.496094 119.726562 43.875 119.121094 44.285156 C 117.902344 45.117188 116.523438 46.046875 115.019531 46.230469 C 116.417969 45.125 118.9375 42.933594 116.539062 41.871094 C 115.261719 41.304688 113.683594 41.320312 112.320312 41.378906 C 110.730469 41.445312 109.140625 41.601562 107.558594 41.757812 C 101.964844 42.320312 96.34375 43.425781 91.363281 46.113281 C 91.496094 45.957031 91.628906 45.800781 91.761719 45.640625 C 93.671875 43.871094 96.054688 42.636719 98.472656 41.699219 C 101.558594 40.507812 104.832031 39.71875 108.125 39.421875 C 111.921875 39.082031 115.886719 39.328125 119.5625 40.371094 Z M 95.738281 49.164062 C 96.894531 49.226562 98.050781 49.230469 99.214844 49.34375 C 98.054688 49.332031 96.890625 49.261719 95.738281 49.164062 Z M 128.460938 42.683594 C 128.457031 42.679688 128.453125 42.675781 128.449219 42.671875 C 128.464844 42.65625 128.480469 42.640625 128.492188 42.628906 C 128.492188 42.640625 128.492188 42.65625 128.492188 42.667969 C 128.480469 42.671875 128.472656 42.679688 128.460938 42.683594 Z M 80.335938 46.472656 C 80.378906 46.277344 80.496094 46.066406 80.585938 45.882812 C 80.75 45.542969 80.953125 45.21875 81.140625 44.894531 C 81.585938 44.132812 82.039062 43.375 82.59375 42.6875 C 83.179688 41.960938 83.867188 41.335938 84.613281 40.792969 C 85.515625 40.25 86.417969 39.730469 87.339844 39.246094 C 90.023438 38.011719 92.964844 37.203125 95.800781 36.496094 C 102.15625 34.90625 108.714844 34.207031 115.257812 34.40625 C 117.890625 34.613281 120.53125 34.980469 123.074219 35.609375 C 123.367188 35.679688 123.660156 35.757812 123.953125 35.847656 C 124.316406 36.09375 124.671875 36.355469 125.011719 36.632812 C 125.5 37.03125 125.925781 37.5625 126.425781 37.929688 C 127.019531 38.363281 127.59375 38.449219 128.03125 39.140625 C 128.15625 39.335938 128.253906 39.53125 128.335938 39.730469 C 128.492188 40.578125 128.3125 41.445312 127.582031 42.074219 C 127.386719 42.242188 127.167969 42.390625 126.9375 42.53125 C 127.007812 41.992188 126.914062 41.421875 126.660156 40.914062 C 125.875 39.335938 123.941406 38.472656 122.421875 37.792969 C 118.976562 36.253906 115.085938 35.648438 111.332031 35.671875 C 109.878906 35.679688 108.441406 35.789062 107.019531 35.972656 C 105.339844 35.902344 103.542969 36.238281 101.929688 36.503906 C 99.691406 36.878906 97.53125 37.488281 95.40625 38.273438 C 92.171875 39.464844 88.777344 40.773438 85.945312 42.820312 C 85.726562 42.925781 85.511719 43.039062 85.308594 43.167969 C 84.949219 43.398438 84.238281 43.84375 83.792969 44.332031 C 83.386719 44.65625 83.015625 45.023438 82.695312 45.4375 C 82.015625 46.3125 81.542969 47.699219 81.941406 48.753906 C 81.230469 48.320312 80.632812 47.75 80.332031 46.976562 C 80.320312 46.941406 80.308594 46.910156 80.300781 46.878906 C 80.300781 46.71875 80.3125 46.570312 80.335938 46.472656 Z M 104.773438 70.207031 C 104.570312 70.207031 104.367188 70.210938 104.164062 70.207031 C 103.078125 70.191406 102.007812 70.089844 100.933594 69.988281 C 101.183594 69.972656 101.433594 69.960938 101.6875 69.960938 C 102.730469 69.960938 103.753906 70.070312 104.773438 70.207031 Z M 116.847656 67.878906 C 115.796875 68.320312 114.710938 68.679688 113.609375 68.976562 C 114.082031 68.71875 114.546875 68.453125 115.039062 68.242188 C 115.589844 68.007812 116.214844 67.933594 116.847656 67.878906 Z M 120.511719 65.835938 C 119.625 66.492188 118.660156 67.054688 117.636719 67.53125 C 116.734375 67.640625 115.816406 67.675781 114.945312 68.050781 C 114.191406 68.375 113.5 68.835938 112.757812 69.191406 C 111.847656 69.410156 110.941406 69.589844 110.050781 69.738281 C 108.789062 69.945312 107.519531 70.089844 106.242188 70.160156 C 105.066406 69.882812 103.816406 69.796875 102.625 69.769531 C 101.808594 69.75 101 69.792969 100.1875 69.859375 C 100.046875 69.867188 99.914062 69.875 99.785156 69.878906 C 99.464844 69.851562 99.144531 69.824219 98.824219 69.804688 C 97.535156 69.191406 96.285156 68.496094 95.082031 67.722656 C 94.40625 67.285156 93.742188 66.824219 93.097656 66.339844 C 92.296875 65.613281 91.527344 64.832031 90.753906 64.03125 C 88.65625 61.867188 86.824219 59.492188 84.976562 57.113281 C 84.03125 55.898438 82.960938 54.753906 82.4375 53.285156 C 81.980469 52.015625 81.621094 50.710938 81.160156 49.445312 C 86.246094 51.980469 91.699219 53.519531 97.4375 52.601562 C 98.457031 52.4375 99.464844 52.226562 100.46875 51.992188 C 102.472656 51.859375 104.414062 51.488281 106.382812 51.058594 C 108.144531 50.679688 109.90625 50.300781 111.664062 49.914062 C 112.1875 49.828125 112.703125 49.722656 113.207031 49.578125 C 113.882812 49.433594 114.570312 49.300781 115.230469 49.105469 C 115.480469 49.074219 115.726562 49.046875 115.972656 49.023438 C 116.960938 49.0625 117.96875 49.074219 118.890625 48.703125 C 120.027344 48.242188 121.207031 47.570312 122.15625 46.800781 C 122.542969 46.480469 122.878906 46.109375 123.238281 45.765625 C 123.335938 45.714844 123.433594 45.667969 123.53125 45.617188 C 124.070312 45.335938 124.632812 45.050781 125.105469 44.65625 C 125.394531 44.515625 125.679688 44.375 125.964844 44.226562 C 126.03125 44.191406 126.097656 44.160156 126.160156 44.125 C 126.867188 43.839844 127.570312 43.527344 128.238281 43.152344 C 128.328125 43.5 128.367188 43.886719 128.34375 44.050781 C 128.300781 44.347656 128.160156 44.683594 128.082031 44.980469 C 127.945312 45.476562 127.8125 45.976562 127.679688 46.472656 C 127.40625 47.503906 127.136719 48.539062 126.863281 49.574219 C 126.273438 51.804688 125.6875 54.039062 125.074219 56.265625 C 124.511719 58.308594 124.074219 60.367188 122.78125 62.09375 C 122.222656 62.835938 121.59375 63.539062 121.15625 64.363281 C 120.898438 64.847656 120.738281 65.367188 120.511719 65.835938 Z M 124.796875 58.4375 C 125.058594 57.566406 125.277344 56.675781 125.519531 55.769531 C 126.246094 53.074219 126.953125 50.371094 127.660156 47.671875 C 127.816406 47.074219 128 46.46875 128.175781 45.859375 C 128.089844 46.484375 128 47.105469 127.890625 47.726562 C 127.445312 50.289062 126.804688 52.8125 125.980469 55.277344 C 125.625 56.347656 125.226562 57.398438 124.796875 58.4375 Z M 140.496094 39.15625 C 139.746094 38.585938 138.878906 38.15625 137.960938 37.902344 C 136.402344 37.46875 134.699219 37.578125 133.171875 38.078125 C 131.925781 38.484375 130.449219 39.144531 129.441406 40.109375 C 129.425781 39.667969 129.34375 39.230469 129.199219 38.8125 C 130.667969 37.976562 132.25 36.851562 133.925781 36.699219 C 134.621094 36.636719 135.429688 36.523438 136.222656 36.519531 C 137.015625 36.660156 137.785156 36.9375 138.5 37.378906 C 139.273438 37.855469 139.949219 38.441406 140.496094 39.15625 Z M 142.996094 43.488281 C 142.921875 42.652344 142.664062 41.875 142.277344 41.179688 C 141.863281 39.386719 140.09375 37.378906 138.503906 36.625 C 138.460938 36.605469 138.414062 36.589844 138.367188 36.570312 C 138.308594 36.539062 138.242188 36.511719 138.179688 36.488281 C 136.9375 35.988281 135.503906 35.847656 134.1875 35.953125 C 132.480469 36.089844 130.035156 36.527344 128.699219 37.78125 C 128.546875 37.539062 128.371094 37.308594 128.183594 37.089844 C 125.941406 34.550781 121.859375 34.167969 118.726562 33.726562 C 114.632812 33.148438 110.476562 32.945312 106.347656 33.25 C 101.996094 33.578125 97.664062 34.5625 93.472656 35.765625 C 89.542969 36.894531 85.15625 38.390625 82.183594 41.324219 C 82.121094 41.386719 82.085938 41.460938 82.070312 41.539062 C 80.230469 42.890625 78.757812 45.164062 79.484375 47.246094 C 80.359375 52.984375 83.773438 58.488281 87.574219 62.734375 C 89.613281 65.015625 91.945312 67.035156 94.511719 68.699219 C 95.8125 69.546875 97.175781 70.300781 98.582031 70.953125 C 99.828125 71.53125 101.273438 72.316406 102.671875 72.308594 C 102.726562 72.304688 102.773438 72.296875 102.816406 72.28125 C 103.238281 72.410156 103.691406 72.457031 104.132812 72.523438 C 104.964844 72.644531 105.796875 72.730469 106.640625 72.761719 C 108.480469 72.839844 110.328125 72.722656 112.144531 72.410156 C 113.789062 72.128906 115.410156 71.664062 116.921875 70.949219 C 117.859375 70.507812 119.117188 69.855469 119.859375 68.96875 C 120.851562 68.410156 121.410156 67.105469 121.972656 66.164062 C 122.625 65.074219 123.242188 63.957031 123.808594 62.824219 C 124.15625 62.125 124.488281 61.417969 124.804688 60.703125 C 126.722656 62.359375 129.742188 59.183594 130.949219 57.875 C 133.332031 55.296875 136.371094 53.710938 139.019531 51.460938 C 141.3125 49.515625 143.277344 46.632812 142.996094 43.488281 " fill-opacity="1" fill-rule="nonzero"/></g><path fill="#603322" d="M 111.773438 14.683594 C 113.058594 13.238281 114.398438 11.777344 115.382812 10.101562 C 115.03125 11.011719 114.625 11.898438 114.050781 12.707031 C 112.535156 14.847656 110.511719 16.734375 108.707031 18.648438 C 109.554688 17.214844 110.660156 15.929688 111.773438 14.683594 Z M 113.859375 16.457031 C 115.105469 14.75 116.261719 12.953125 116.890625 10.964844 C 116.878906 11.019531 116.871094 11.078125 116.859375 11.132812 C 116.414062 13.164062 115.1875 14.882812 113.859375 16.457031 Z M 107.191406 26.609375 C 107.175781 26.445312 107.160156 26.28125 107.144531 26.117188 C 107.292969 25.863281 107.445312 25.605469 107.59375 25.351562 C 107.4375 25.761719 107.304688 26.183594 107.191406 26.609375 Z M 107.078125 25.019531 C 107.078125 23.726562 107.222656 22.433594 107.585938 21.191406 C 107.824219 20.367188 108.167969 19.597656 108.582031 18.867188 C 110.433594 16.9375 112.519531 15.089844 114.132812 12.953125 C 114.820312 12.042969 115.296875 11.003906 115.730469 9.953125 C 116.109375 9.039062 116.542969 8.121094 116.890625 7.179688 C 117.03125 8.070312 117.09375 8.976562 117.03125 9.875 C 116.355469 12.851562 114.445312 15.386719 112.628906 17.796875 C 112.464844 18.019531 112.296875 18.238281 112.128906 18.457031 C 110.820312 19.980469 109.503906 21.621094 108.511719 23.402344 C 107.988281 24.171875 107.492188 24.972656 107.117188 25.8125 C 107.097656 25.546875 107.078125 25.28125 107.078125 25.019531 Z M 106.867188 28.898438 C 106.867188 28.914062 106.863281 28.925781 106.863281 28.941406 C 106.855469 29.445312 107.582031 29.421875 107.628906 28.941406 C 107.90625 26.257812 108.960938 24.09375 110.542969 21.9375 C 111.988281 19.964844 113.738281 18.246094 115.234375 16.316406 C 116.554688 14.617188 117.566406 12.691406 117.777344 10.519531 C 118.007812 8.1875 117.523438 5.261719 116.484375 3.15625 C 116.445312 3.078125 116.367188 3.050781 116.292969 3.058594 C 116.164062 2.957031 115.941406 3.03125 115.90625 3.191406 C 115.792969 3.726562 115.882812 4.21875 115.902344 4.757812 C 115.925781 5.453125 115.84375 6.136719 115.679688 6.8125 C 115.378906 8.054688 114.832031 9.203125 114.140625 10.273438 C 112.769531 12.398438 110.929688 14.15625 109.390625 16.148438 C 108.007812 17.941406 106.933594 19.902344 106.539062 22.152344 C 106.335938 23.328125 106.273438 24.527344 106.332031 25.714844 C 106.382812 26.742188 106.433594 27.953125 106.867188 28.898438 " fill-opacity="1" fill-rule="nonzero"/><path fill="#603322" d="M 97.585938 6.675781 C 98.371094 8.125 99.019531 9.632812 99.410156 11.207031 C 98.941406 9.953125 98.265625 8.75 97.664062 7.5625 C 96.832031 5.910156 95.996094 3.976562 94.210938 3.195312 C 94.023438 2.945312 93.816406 2.707031 93.601562 2.480469 C 94.132812 2.75 94.644531 3.0625 95.113281 3.464844 C 96.152344 4.351562 96.9375 5.476562 97.585938 6.675781 Z M 101.292969 26.09375 C 101.628906 26.804688 101.945312 27.546875 102.347656 28.234375 C 100.304688 27.261719 98.441406 25.730469 97.25 23.824219 C 96.859375 23.195312 96.566406 22.542969 96.347656 21.871094 C 96.21875 20.273438 95.957031 18.757812 96.355469 17.167969 C 96.703125 15.777344 96.917969 14.632812 96.867188 13.183594 C 96.800781 11.382812 96.625 9.378906 96.023438 7.585938 C 95.929688 7.058594 95.804688 6.535156 95.640625 6.015625 C 95.339844 5.082031 94.902344 4.152344 94.320312 3.34375 C 95.929688 4.390625 96.820312 6.09375 97.632812 7.804688 C 98.136719 8.855469 98.699219 9.886719 99.160156 10.957031 C 99.4375 11.589844 99.609375 12.234375 99.71875 12.890625 C 99.800781 13.585938 99.828125 14.292969 99.785156 15.011719 C 99.707031 16.367188 99.4375 17.703125 99.457031 19.0625 C 99.472656 20.335938 99.679688 21.613281 100.039062 22.832031 C 100.367188 23.945312 100.800781 25.042969 101.292969 26.09375 Z M 95.957031 15.023438 C 96.136719 13.214844 96.320312 11.375 96.234375 9.558594 C 96.535156 10.988281 96.648438 12.453125 96.667969 13.90625 C 96.691406 15.308594 96.207031 16.476562 95.996094 17.824219 C 95.871094 18.601562 95.875 19.40625 95.953125 20.199219 C 95.691406 18.511719 95.792969 16.753906 95.957031 15.023438 Z M 95.246094 8.855469 C 95.476562 12.050781 94.667969 15.203125 94.722656 18.390625 C 94.816406 23.75 98.199219 27.753906 103.132812 29.523438 C 103.238281 29.5625 103.332031 29.558594 103.410156 29.527344 C 103.621094 29.550781 103.824219 29.304688 103.707031 29.074219 C 103.6875 29.035156 103.664062 28.992188 103.640625 28.953125 C 103.625 28.902344 103.597656 28.851562 103.5625 28.808594 C 102.917969 27.636719 102.039062 26.617188 101.457031 25.398438 C 100.761719 23.945312 100.320312 22.363281 100.136719 20.765625 C 99.789062 17.800781 100.792969 14.90625 100.371094 11.941406 C 100 9.355469 98.8125 6.5625 97.296875 4.433594 C 96.085938 2.738281 94.058594 0.875 91.804688 1.214844 C 91.707031 1.171875 91.605469 1.125 91.503906 1.085938 C 91.335938 1.023438 91.179688 1.285156 91.324219 1.398438 C 93.730469 3.28125 95.027344 5.796875 95.246094 8.855469 " fill-opacity="1" fill-rule="nonzero"/><g clip-path="url(#689c7bd27e)"><path fill="#603322" d="M 79.328125 23.5 C 80.238281 24.671875 81.21875 25.804688 82.300781 26.804688 C 82.433594 26.925781 82.574219 27.050781 82.71875 27.175781 C 81.214844 26.433594 80.03125 25.300781 79.015625 23.832031 C 78.777344 23.488281 78.558594 23.136719 78.359375 22.777344 C 78.667969 23.042969 78.992188 23.28125 79.328125 23.5 Z M 90.230469 26.566406 C 91.015625 26.839844 91.738281 27.207031 92.394531 27.683594 C 92.082031 27.519531 91.738281 27.394531 91.332031 27.3125 C 89.921875 27.019531 88.621094 26.402344 87.246094 25.984375 C 86.828125 25.855469 86.410156 25.742188 85.992188 25.632812 C 87.425781 25.859375 88.859375 26.085938 90.230469 26.566406 Z M 84.328125 27.785156 C 84 27.695312 83.6875 27.589844 83.382812 27.46875 C 82.871094 27.117188 82.386719 26.695312 81.894531 26.207031 C 81.105469 25.425781 80.398438 24.570312 79.683594 23.722656 C 80.867188 24.433594 82.179688 24.898438 83.558594 25.199219 C 84.039062 25.304688 84.527344 25.390625 85.015625 25.472656 C 86.632812 25.964844 88.21875 26.53125 89.820312 27.09375 C 90.984375 27.503906 92.164062 27.503906 93.148438 28.335938 C 93.257812 28.429688 93.367188 28.527344 93.476562 28.628906 C 93.917969 29.09375 94.304688 29.609375 94.652344 30.144531 C 93.308594 29.582031 91.90625 29.101562 90.503906 28.800781 C 88.460938 28.359375 86.351562 28.34375 84.328125 27.785156 Z M 82.6875 28.167969 C 84.6875 29.035156 86.894531 29.265625 89.023438 29.632812 C 91.367188 30.042969 93.398438 30.996094 95.636719 31.730469 C 96.195312 31.914062 96.585938 31.027344 96.042969 30.769531 C 95.976562 30.738281 95.914062 30.710938 95.847656 30.679688 C 95.570312 30.011719 95.066406 29.378906 94.671875 28.855469 C 94.046875 28.03125 93.308594 27.304688 92.453125 26.71875 C 90.578125 25.4375 88.328125 25.023438 86.136719 24.628906 C 83.886719 24.226562 81.566406 23.800781 79.667969 22.441406 C 78.71875 21.757812 77.898438 20.882812 77.273438 19.898438 C 76.894531 19.304688 76.664062 18.589844 76.308594 17.972656 C 76.289062 17.921875 76.273438 17.875 76.25 17.824219 C 76.226562 17.761719 76.179688 17.714844 76.125 17.683594 C 76.011719 17.515625 75.886719 17.359375 75.738281 17.222656 C 75.621094 17.113281 75.429688 17.160156 75.382812 17.316406 C 75.074219 18.355469 75.632812 19.570312 76.375 20.613281 C 76.828125 21.804688 77.460938 22.945312 78.125 23.964844 C 79.292969 25.746094 80.703125 27.308594 82.6875 28.167969 " fill-opacity="1" fill-rule="nonzero"/></g><g fill="#632f24" fill-opacity="1"><g transform="translate(31.884009, 107.988186)"><g><path d="M 8.359375 -14.59375 C 9.171875 -14.59375 9.859375 -14.476562 10.421875 -14.25 C 10.984375 -14.019531 11.535156 -13.695312 12.078125 -13.28125 C 12.210938 -13.15625 12.34375 -13.09375 12.46875 -13.09375 C 12.738281 -13.09375 12.910156 -13.492188 12.984375 -14.296875 L 13.453125 -14.296875 C 13.398438 -13.347656 13.375 -11.664062 13.375 -9.25 L 12.90625 -9.25 C 12.8125 -10.332031 12.632812 -11.179688 12.375 -11.796875 C 12.125 -12.421875 11.679688 -12.941406 11.046875 -13.359375 C 10.410156 -13.753906 9.785156 -13.953125 9.171875 -13.953125 C 7.773438 -13.953125 6.789062 -13.28125 6.21875 -11.9375 C 5.65625 -10.59375 5.375 -8.984375 5.375 -7.109375 C 5.375 -5.234375 5.65625 -3.625 6.21875 -2.28125 C 6.789062 -0.9375 7.773438 -0.265625 9.171875 -0.265625 C 9.785156 -0.265625 10.410156 -0.46875 11.046875 -0.875 C 11.679688 -1.257812 12.125 -1.78125 12.375 -2.4375 C 12.632812 -3.101562 12.8125 -4.039062 12.90625 -5.25 L 13.375 -5.25 C 13.375 -2.726562 13.398438 -0.976562 13.453125 0 L 12.984375 0 C 12.953125 -0.425781 12.894531 -0.726562 12.8125 -0.90625 C 12.738281 -1.09375 12.632812 -1.1875 12.5 -1.1875 C 12.394531 -1.1875 12.253906 -1.132812 12.078125 -1.03125 C 11.472656 -0.601562 10.894531 -0.273438 10.34375 -0.046875 C 9.789062 0.171875 9.125 0.28125 8.34375 0.28125 C 6.820312 0.28125 5.488281 -0.00390625 4.34375 -0.578125 C 3.195312 -1.160156 2.304688 -2 1.671875 -3.09375 C 1.046875 -4.195312 0.734375 -5.507812 0.734375 -7.03125 C 0.734375 -8.507812 1.054688 -9.820312 1.703125 -10.96875 C 2.347656 -12.113281 3.25 -13.003906 4.40625 -13.640625 C 5.5625 -14.273438 6.878906 -14.59375 8.359375 -14.59375 Z M 8.359375 -14.59375 "/></g></g></g><g fill="#632f24" fill-opacity="1"><g transform="translate(47.96746, 107.988186)"><g><path d="M 8.359375 -14.59375 C 9.878906 -14.59375 11.210938 -14.300781 12.359375 -13.71875 C 13.503906 -13.132812 14.394531 -12.296875 15.03125 -11.203125 C 15.664062 -10.109375 15.984375 -8.796875 15.984375 -7.265625 C 15.984375 -5.785156 15.660156 -4.472656 15.015625 -3.328125 C 14.367188 -2.179688 13.460938 -1.289062 12.296875 -0.65625 C 11.140625 -0.03125 9.820312 0.28125 8.34375 0.28125 C 6.820312 0.28125 5.488281 -0.00390625 4.34375 -0.578125 C 3.195312 -1.160156 2.304688 -2 1.671875 -3.09375 C 1.046875 -4.195312 0.734375 -5.507812 0.734375 -7.03125 C 0.734375 -8.507812 1.054688 -9.820312 1.703125 -10.96875 C 2.347656 -12.113281 3.25 -13.003906 4.40625 -13.640625 C 5.5625 -14.273438 6.878906 -14.59375 8.359375 -14.59375 Z M 8.28125 -14.21875 C 7.625 -14.21875 7.039062 -13.914062 6.53125 -13.3125 C 6.03125 -12.71875 5.644531 -11.878906 5.375 -10.796875 C 5.101562 -9.722656 4.96875 -8.492188 4.96875 -7.109375 C 4.96875 -5.710938 5.125 -4.476562 5.4375 -3.40625 C 5.75 -2.34375 6.164062 -1.519531 6.6875 -0.9375 C 7.207031 -0.363281 7.785156 -0.078125 8.421875 -0.078125 C 9.085938 -0.078125 9.671875 -0.375 10.171875 -0.96875 C 10.679688 -1.570312 11.066406 -2.410156 11.328125 -3.484375 C 11.597656 -4.566406 11.734375 -5.800781 11.734375 -7.1875 C 11.734375 -8.59375 11.578125 -9.828125 11.265625 -10.890625 C 10.960938 -11.953125 10.546875 -12.769531 10.015625 -13.34375 C 9.492188 -13.925781 8.914062 -14.21875 8.28125 -14.21875 Z M 8.28125 -14.21875 "/></g></g></g><g fill="#632f24" fill-opacity="1"><g transform="translate(66.273448, 107.988186)"><g><path d="M 11.328125 -13.90625 L 5.21875 -0.46875 L 6.0625 -0.46875 C 6.613281 -0.46875 7.242188 -0.625 7.953125 -0.9375 C 8.671875 -1.257812 9.316406 -1.78125 9.890625 -2.5 C 10.472656 -3.21875 10.828125 -4.132812 10.953125 -5.25 L 11.421875 -5.25 C 11.378906 -4.769531 11.359375 -4.148438 11.359375 -3.390625 C 11.359375 -2.015625 11.40625 -0.882812 11.5 0 C 10.5 -0.0390625 8.820312 -0.0625 6.46875 -0.0625 C 3.84375 -0.0625 1.9375 -0.0390625 0.75 0 L 0.75 -0.40625 L 6.875 -13.84375 L 5.859375 -13.84375 C 5.222656 -13.84375 4.585938 -13.703125 3.953125 -13.421875 C 3.328125 -13.148438 2.769531 -12.6875 2.28125 -12.03125 C 1.800781 -11.375 1.484375 -10.515625 1.328125 -9.453125 L 0.875 -9.453125 C 0.90625 -9.804688 0.921875 -10.289062 0.921875 -10.90625 C 0.921875 -11.90625 0.875 -13.035156 0.78125 -14.296875 C 1.625 -14.265625 3.035156 -14.25 5.015625 -14.25 C 7.921875 -14.25 10.023438 -14.265625 11.328125 -14.296875 Z M 11.328125 -13.90625 "/></g></g></g><g fill="#632f24" fill-opacity="1"><g transform="translate(80.134364, 107.988186)"><g><path d="M 11.296875 -14.265625 C 11.929688 -14.265625 12.445312 -14.285156 12.84375 -14.328125 L 12.84375 -13.921875 C 12.15625 -13.585938 11.441406 -12.691406 10.703125 -11.234375 L 8.828125 -7.515625 L 8.828125 -2.140625 C 8.828125 -1.628906 8.863281 -1.257812 8.9375 -1.03125 C 9.007812 -0.800781 9.140625 -0.644531 9.328125 -0.5625 C 9.515625 -0.476562 9.828125 -0.425781 10.265625 -0.40625 L 10.265625 0 C 9.484375 -0.0390625 8.320312 -0.0625 6.78125 -0.0625 C 5.1875 -0.0625 4.023438 -0.0390625 3.296875 0 L 3.296875 -0.40625 C 3.722656 -0.425781 4.035156 -0.476562 4.234375 -0.5625 C 4.429688 -0.644531 4.5625 -0.800781 4.625 -1.03125 C 4.695312 -1.257812 4.734375 -1.628906 4.734375 -2.140625 L 4.734375 -5.859375 L 0.984375 -12.765625 C 0.773438 -13.160156 0.566406 -13.445312 0.359375 -13.625 C 0.160156 -13.8125 -0.0195312 -13.90625 -0.1875 -13.90625 L -0.1875 -14.328125 C 0.65625 -14.242188 1.585938 -14.203125 2.609375 -14.203125 C 3.765625 -14.203125 5.242188 -14.242188 7.046875 -14.328125 L 7.046875 -13.90625 C 6.515625 -13.90625 6.113281 -13.875 5.84375 -13.8125 C 5.570312 -13.757812 5.4375 -13.632812 5.4375 -13.4375 C 5.4375 -13.34375 5.460938 -13.238281 5.515625 -13.125 L 8.40625 -7.59375 L 9.3125 -9.421875 C 9.945312 -10.679688 10.265625 -11.679688 10.265625 -12.421875 C 10.265625 -13.378906 9.722656 -13.878906 8.640625 -13.921875 L 8.640625 -14.328125 C 9.648438 -14.285156 10.535156 -14.265625 11.296875 -14.265625 Z M 11.296875 -14.265625 "/></g></g></g><g fill="#632f24" fill-opacity="1"><g transform="translate(94.742856, 107.988186)"><g/></g></g><g fill="#632f24" fill-opacity="1"><g transform="translate(100.845096, 107.988186)"><g><path d="M 8.359375 -14.59375 C 9.171875 -14.59375 9.859375 -14.476562 10.421875 -14.25 C 10.984375 -14.019531 11.535156 -13.695312 12.078125 -13.28125 C 12.210938 -13.15625 12.34375 -13.09375 12.46875 -13.09375 C 12.738281 -13.09375 12.910156 -13.492188 12.984375 -14.296875 L 13.453125 -14.296875 C 13.398438 -13.347656 13.375 -11.664062 13.375 -9.25 L 12.90625 -9.25 C 12.8125 -10.332031 12.632812 -11.179688 12.375 -11.796875 C 12.125 -12.421875 11.679688 -12.941406 11.046875 -13.359375 C 10.410156 -13.753906 9.785156 -13.953125 9.171875 -13.953125 C 7.773438 -13.953125 6.789062 -13.28125 6.21875 -11.9375 C 5.65625 -10.59375 5.375 -8.984375 5.375 -7.109375 C 5.375 -5.234375 5.65625 -3.625 6.21875 -2.28125 C 6.789062 -0.9375 7.773438 -0.265625 9.171875 -0.265625 C 9.785156 -0.265625 10.410156 -0.46875 11.046875 -0.875 C 11.679688 -1.257812 12.125 -1.78125 12.375 -2.4375 C 12.632812 -3.101562 12.8125 -4.039062 12.90625 -5.25 L 13.375 -5.25 C 13.375 -2.726562 13.398438 -0.976562 13.453125 0 L 12.984375 0 C 12.953125 -0.425781 12.894531 -0.726562 12.8125 -0.90625 C 12.738281 -1.09375 12.632812 -1.1875 12.5 -1.1875 C 12.394531 -1.1875 12.253906 -1.132812 12.078125 -1.03125 C 11.472656 -0.601562 10.894531 -0.273438 10.34375 -0.046875 C 9.789062 0.171875 9.125 0.28125 8.34375 0.28125 C 6.820312 0.28125 5.488281 -0.00390625 4.34375 -0.578125 C 3.195312 -1.160156 2.304688 -2 1.671875 -3.09375 C 1.046875 -4.195312 0.734375 -5.507812 0.734375 -7.03125 C 0.734375 -8.507812 1.054688 -9.820312 1.703125 -10.96875 C 2.347656 -12.113281 3.25 -13.003906 4.40625 -13.640625 C 5.5625 -14.273438 6.878906 -14.59375 8.359375 -14.59375 Z M 8.359375 -14.59375 "/></g></g></g><g fill="#632f24" fill-opacity="1"><g transform="translate(116.92855, 107.988186)"><g><path d="M 8.359375 -14.59375 C 9.878906 -14.59375 11.210938 -14.300781 12.359375 -13.71875 C 13.503906 -13.132812 14.394531 -12.296875 15.03125 -11.203125 C 15.664062 -10.109375 15.984375 -8.796875 15.984375 -7.265625 C 15.984375 -5.785156 15.660156 -4.472656 15.015625 -3.328125 C 14.367188 -2.179688 13.460938 -1.289062 12.296875 -0.65625 C 11.140625 -0.03125 9.820312 0.28125 8.34375 0.28125 C 6.820312 0.28125 5.488281 -0.00390625 4.34375 -0.578125 C 3.195312 -1.160156 2.304688 -2 1.671875 -3.09375 C 1.046875 -4.195312 0.734375 -5.507812 0.734375 -7.03125 C 0.734375 -8.507812 1.054688 -9.820312 1.703125 -10.96875 C 2.347656 -12.113281 3.25 -13.003906 4.40625 -13.640625 C 5.5625 -14.273438 6.878906 -14.59375 8.359375 -14.59375 Z M 8.28125 -14.21875 C 7.625 -14.21875 7.039062 -13.914062 6.53125 -13.3125 C 6.03125 -12.71875 5.644531 -11.878906 5.375 -10.796875 C 5.101562 -9.722656 4.96875 -8.492188 4.96875 -7.109375 C 4.96875 -5.710938 5.125 -4.476562 5.4375 -3.40625 C 5.75 -2.34375 6.164062 -1.519531 6.6875 -0.9375 C 7.207031 -0.363281 7.785156 -0.078125 8.421875 -0.078125 C 9.085938 -0.078125 9.671875 -0.375 10.171875 -0.96875 C 10.679688 -1.570312 11.066406 -2.410156 11.328125 -3.484375 C 11.597656 -4.566406 11.734375 -5.800781 11.734375 -7.1875 C 11.734375 -8.59375 11.578125 -9.828125 11.265625 -10.890625 C 10.960938 -11.953125 10.546875 -12.769531 10.015625 -13.34375 C 9.492188 -13.925781 8.914062 -14.21875 8.28125 -14.21875 Z M 8.28125 -14.21875 "/></g></g></g><g fill="#632f24" fill-opacity="1"><g transform="translate(135.234539, 107.988186)"><g><path d="M 11.859375 -14.296875 C 11.765625 -13.035156 11.71875 -11.90625 11.71875 -10.90625 C 11.71875 -10.289062 11.738281 -9.804688 11.78125 -9.453125 L 11.3125 -9.453125 C 10.988281 -11.015625 10.492188 -12.132812 9.828125 -12.8125 C 9.160156 -13.5 8.414062 -13.84375 7.59375 -13.84375 L 7.328125 -13.84375 C 6.960938 -13.84375 6.695312 -13.8125 6.53125 -13.75 C 6.363281 -13.6875 6.25 -13.570312 6.1875 -13.40625 C 6.125 -13.238281 6.09375 -12.957031 6.09375 -12.5625 L 6.09375 -7.390625 L 6.296875 -7.390625 C 7.003906 -7.390625 7.601562 -7.664062 8.09375 -8.21875 C 8.59375 -8.769531 8.910156 -9.382812 9.046875 -10.0625 L 9.515625 -10.0625 C 9.472656 -9.5 9.453125 -8.863281 9.453125 -8.15625 L 9.453125 -7.1875 C 9.453125 -6.5 9.492188 -5.546875 9.578125 -4.328125 L 9.109375 -4.328125 C 8.992188 -5.085938 8.679688 -5.71875 8.171875 -6.21875 C 7.671875 -6.726562 7.046875 -6.984375 6.296875 -6.984375 L 6.09375 -6.984375 L 6.09375 -2.34375 C 6.09375 -1.78125 6.148438 -1.367188 6.265625 -1.109375 C 6.378906 -0.859375 6.585938 -0.6875 6.890625 -0.59375 C 7.203125 -0.507812 7.6875 -0.46875 8.34375 -0.46875 L 8.34375 0 C 6.519531 -0.0390625 5.132812 -0.0625 4.1875 -0.0625 C 3.550781 -0.0625 2.664062 -0.046875 1.53125 -0.015625 L 0.5625 0 L 0.5625 -0.40625 C 1 -0.425781 1.3125 -0.476562 1.5 -0.5625 C 1.695312 -0.644531 1.828125 -0.800781 1.890625 -1.03125 C 1.960938 -1.257812 2 -1.628906 2 -2.140625 L 2 -12.15625 C 2 -12.675781 1.960938 -13.046875 1.890625 -13.265625 C 1.816406 -13.492188 1.6875 -13.648438 1.5 -13.734375 C 1.3125 -13.816406 1 -13.875 0.5625 -13.90625 L 0.5625 -14.296875 C 2.125 -14.265625 4.484375 -14.25 7.640625 -14.25 C 9.617188 -14.25 11.023438 -14.265625 11.859375 -14.296875 Z M 11.859375 -14.296875 "/></g></g></g><g fill="#632f24" fill-opacity="1"><g transform="translate(149.115661, 107.988186)"><g><path d="M 11.859375 -14.296875 C 11.765625 -13.035156 11.71875 -11.90625 11.71875 -10.90625 C 11.71875 -10.289062 11.738281 -9.804688 11.78125 -9.453125 L 11.3125 -9.453125 C 10.988281 -11.015625 10.492188 -12.132812 9.828125 -12.8125 C 9.160156 -13.5 8.414062 -13.84375 7.59375 -13.84375 L 7.328125 -13.84375 C 6.960938 -13.84375 6.695312 -13.8125 6.53125 -13.75 C 6.363281 -13.6875 6.25 -13.570312 6.1875 -13.40625 C 6.125 -13.238281 6.09375 -12.957031 6.09375 -12.5625 L 6.09375 -7.390625 L 6.296875 -7.390625 C 7.003906 -7.390625 7.601562 -7.664062 8.09375 -8.21875 C 8.59375 -8.769531 8.910156 -9.382812 9.046875 -10.0625 L 9.515625 -10.0625 C 9.472656 -9.5 9.453125 -8.863281 9.453125 -8.15625 L 9.453125 -7.1875 C 9.453125 -6.5 9.492188 -5.546875 9.578125 -4.328125 L 9.109375 -4.328125 C 8.992188 -5.085938 8.679688 -5.71875 8.171875 -6.21875 C 7.671875 -6.726562 7.046875 -6.984375 6.296875 -6.984375 L 6.09375 -6.984375 L 6.09375 -2.34375 C 6.09375 -1.78125 6.148438 -1.367188 6.265625 -1.109375 C 6.378906 -0.859375 6.585938 -0.6875 6.890625 -0.59375 C 7.203125 -0.507812 7.6875 -0.46875 8.34375 -0.46875 L 8.34375 0 C 6.519531 -0.0390625 5.132812 -0.0625 4.1875 -0.0625 C 3.550781 -0.0625 2.664062 -0.046875 1.53125 -0.015625 L 0.5625 0 L 0.5625 -0.40625 C 1 -0.425781 1.3125 -0.476562 1.5 -0.5625 C 1.695312 -0.644531 1.828125 -0.800781 1.890625 -1.03125 C 1.960938 -1.257812 2 -1.628906 2 -2.140625 L 2 -12.15625 C 2 -12.675781 1.960938 -13.046875 1.890625 -13.265625 C 1.816406 -13.492188 1.6875 -13.648438 1.5 -13.734375 C 1.3125 -13.816406 1 -13.875 0.5625 -13.90625 L 0.5625 -14.296875 C 2.125 -14.265625 4.484375 -14.25 7.640625 -14.25 C 9.617188 -14.25 11.023438 -14.265625 11.859375 -14.296875 Z M 11.859375 -14.296875 "/></g></g></g><g fill="#632f24" fill-opacity="1"><g transform="translate(162.996783, 107.988186)"><g><path d="M 12.125 -3.390625 C 12.125 -2.015625 12.171875 -0.882812 12.265625 0 C 11.347656 -0.0390625 9.804688 -0.0625 7.640625 -0.0625 C 4.484375 -0.0625 2.125 -0.0390625 0.5625 0 L 0.5625 -0.40625 C 1 -0.425781 1.3125 -0.476562 1.5 -0.5625 C 1.695312 -0.644531 1.828125 -0.800781 1.890625 -1.03125 C 1.960938 -1.257812 2 -1.628906 2 -2.140625 L 2 -12.15625 C 2 -12.675781 1.960938 -13.046875 1.890625 -13.265625 C 1.816406 -13.492188 1.6875 -13.648438 1.5 -13.734375 C 1.3125 -13.816406 1 -13.875 0.5625 -13.90625 L 0.5625 -14.296875 C 2.125 -14.265625 4.484375 -14.25 7.640625 -14.25 C 9.617188 -14.25 11.023438 -14.265625 11.859375 -14.296875 C 11.765625 -13.035156 11.71875 -11.90625 11.71875 -10.90625 C 11.71875 -10.289062 11.738281 -9.804688 11.78125 -9.453125 L 11.3125 -9.453125 C 11.070312 -11.015625 10.617188 -12.132812 9.953125 -12.8125 C 9.296875 -13.5 8.507812 -13.84375 7.59375 -13.84375 L 7.328125 -13.84375 C 6.960938 -13.84375 6.695312 -13.8125 6.53125 -13.75 C 6.363281 -13.6875 6.25 -13.570312 6.1875 -13.40625 C 6.125 -13.238281 6.09375 -12.957031 6.09375 -12.5625 L 6.09375 -7.390625 L 6.296875 -7.390625 C 7.003906 -7.390625 7.601562 -7.664062 8.09375 -8.21875 C 8.59375 -8.769531 8.910156 -9.382812 9.046875 -10.0625 L 9.515625 -10.0625 C 9.472656 -9.5 9.453125 -8.863281 9.453125 -8.15625 L 9.453125 -7.1875 C 9.453125 -6.5 9.492188 -5.546875 9.578125 -4.328125 L 9.109375 -4.328125 C 8.992188 -5.085938 8.679688 -5.71875 8.171875 -6.21875 C 7.671875 -6.726562 7.046875 -6.984375 6.296875 -6.984375 L 6.09375 -6.984375 L 6.09375 -1.734375 C 6.09375 -1.347656 6.125 -1.066406 6.1875 -0.890625 C 6.25 -0.722656 6.363281 -0.609375 6.53125 -0.546875 C 6.695312 -0.492188 6.960938 -0.46875 7.328125 -0.46875 L 8 -0.46875 C 8.78125 -0.46875 9.519531 -0.847656 10.21875 -1.609375 C 10.914062 -2.367188 11.414062 -3.582031 11.71875 -5.25 L 12.1875 -5.25 C 12.144531 -4.769531 12.125 -4.148438 12.125 -3.390625 Z M 12.125 -3.390625 "/></g></g></g><g fill="#632f24" fill-opacity="1"><g transform="translate(177.726509, 107.988186)"><g><path d="M 12.125 -3.390625 C 12.125 -2.015625 12.171875 -0.882812 12.265625 0 C 11.347656 -0.0390625 9.804688 -0.0625 7.640625 -0.0625 C 4.484375 -0.0625 2.125 -0.0390625 0.5625 0 L 0.5625 -0.40625 C 1 -0.425781 1.3125 -0.476562 1.5 -0.5625 C 1.695312 -0.644531 1.828125 -0.800781 1.890625 -1.03125 C 1.960938 -1.257812 2 -1.628906 2 -2.140625 L 2 -12.15625 C 2 -12.675781 1.960938 -13.046875 1.890625 -13.265625 C 1.816406 -13.492188 1.6875 -13.648438 1.5 -13.734375 C 1.3125 -13.816406 1 -13.875 0.5625 -13.90625 L 0.5625 -14.296875 C 2.125 -14.265625 4.484375 -14.25 7.640625 -14.25 C 9.617188 -14.25 11.023438 -14.265625 11.859375 -14.296875 C 11.765625 -13.035156 11.71875 -11.90625 11.71875 -10.90625 C 11.71875 -10.289062 11.738281 -9.804688 11.78125 -9.453125 L 11.3125 -9.453125 C 11.070312 -11.015625 10.617188 -12.132812 9.953125 -12.8125 C 9.296875 -13.5 8.507812 -13.84375 7.59375 -13.84375 L 7.328125 -13.84375 C 6.960938 -13.84375 6.695312 -13.8125 6.53125 -13.75 C 6.363281 -13.6875 6.25 -13.570312 6.1875 -13.40625 C 6.125 -13.238281 6.09375 -12.957031 6.09375 -12.5625 L 6.09375 -7.390625 L 6.296875 -7.390625 C 7.003906 -7.390625 7.601562 -7.664062 8.09375 -8.21875 C 8.59375 -8.769531 8.910156 -9.382812 9.046875 -10.0625 L 9.515625 -10.0625 C 9.472656 -9.5 9.453125 -8.863281 9.453125 -8.15625 L 9.453125 -7.1875 C 9.453125 -6.5 9.492188 -5.546875 9.578125 -4.328125 L 9.109375 -4.328125 C 8.992188 -5.085938 8.679688 -5.71875 8.171875 -6.21875 C 7.671875 -6.726562 7.046875 -6.984375 6.296875 -6.984375 L 6.09375 -6.984375 L 6.09375 -1.734375 C 6.09375 -1.347656 6.125 -1.066406 6.1875 -0.890625 C 6.25 -0.722656 6.363281 -0.609375 6.53125 -0.546875 C 6.695312 -0.492188 6.960938 -0.46875 7.328125 -0.46875 L 8 -0.46875 C 8.78125 -0.46875 9.519531 -0.847656 10.21875 -1.609375 C 10.914062 -2.367188 11.414062 -3.582031 11.71875 -5.25 L 12.1875 -5.25 C 12.144531 -4.769531 12.125 -4.148438 12.125 -3.390625 Z M 12.125 -3.390625 "/></g></g></g><g fill="#632f24" fill-opacity="1"><g transform="translate(55.2509, 123.994772)"><g><path d="M 2.21875 -2.640625 L 2.21875 0 L 0.671875 0 L 0.671875 -7.515625 L 3.59375 -7.515625 C 4.164062 -7.515625 4.664062 -7.410156 5.09375 -7.203125 C 5.519531 -6.992188 5.847656 -6.695312 6.078125 -6.3125 C 6.304688 -5.9375 6.421875 -5.503906 6.421875 -5.015625 C 6.421875 -4.285156 6.164062 -3.707031 5.65625 -3.28125 C 5.15625 -2.851562 4.460938 -2.640625 3.578125 -2.640625 Z M 2.21875 -3.90625 L 3.59375 -3.90625 C 4.007812 -3.90625 4.320312 -4 4.53125 -4.1875 C 4.75 -4.382812 4.859375 -4.660156 4.859375 -5.015625 C 4.859375 -5.378906 4.75 -5.675781 4.53125 -5.90625 C 4.3125 -6.132812 4.015625 -6.25 3.640625 -6.25 L 2.21875 -6.25 Z M 2.21875 -3.90625 "/></g></g></g><g fill="#632f24" fill-opacity="1"><g transform="translate(63.2136, 123.994772)"><g><path d="M 3.453125 -2.75 L 2.21875 -2.75 L 2.21875 0 L 0.671875 0 L 0.671875 -7.515625 L 3.453125 -7.515625 C 4.347656 -7.515625 5.035156 -7.316406 5.515625 -6.921875 C 5.992188 -6.523438 6.234375 -5.960938 6.234375 -5.234375 C 6.234375 -4.722656 6.117188 -4.296875 5.890625 -3.953125 C 5.671875 -3.609375 5.335938 -3.335938 4.890625 -3.140625 L 6.515625 -0.078125 L 6.515625 0 L 4.859375 0 Z M 2.21875 -4 L 3.46875 -4 C 3.851562 -4 4.148438 -4.097656 4.359375 -4.296875 C 4.578125 -4.492188 4.6875 -4.765625 4.6875 -5.109375 C 4.6875 -5.460938 4.582031 -5.738281 4.375 -5.9375 C 4.175781 -6.144531 3.867188 -6.25 3.453125 -6.25 L 2.21875 -6.25 Z M 2.21875 -4 "/></g></g></g><g fill="#632f24" fill-opacity="1"><g transform="translate(71.104117, 123.994772)"><g><path d="M 5.1875 -3.25 L 2.21875 -3.25 L 2.21875 -1.25 L 5.703125 -1.25 L 5.703125 0 L 0.671875 0 L 0.671875 -7.515625 L 5.6875 -7.515625 L 5.6875 -6.25 L 2.21875 -6.25 L 2.21875 -4.46875 L 5.1875 -4.46875 Z M 5.1875 -3.25 "/></g></g></g><g fill="#632f24" fill-opacity="1"><g transform="translate(78.195465, 123.994772)"><g><path d="M 2.6875 -7.515625 L 4.625 -2.0625 L 6.546875 -7.515625 L 8.578125 -7.515625 L 8.578125 0 L 7.015625 0 L 7.015625 -2.046875 L 7.171875 -5.59375 L 5.140625 0 L 4.078125 0 L 2.0625 -5.59375 L 2.21875 -2.046875 L 2.21875 0 L 0.671875 0 L 0.671875 -7.515625 Z M 2.6875 -7.515625 "/></g></g></g><g fill="#632f24" fill-opacity="1"><g transform="translate(88.596918, 123.994772)"><g><path d="M 2.3125 0 L 0.765625 0 L 0.765625 -7.515625 L 2.3125 -7.515625 Z M 2.3125 0 "/></g></g></g><g fill="#632f24" fill-opacity="1"><g transform="translate(92.826729, 123.994772)"><g><path d="M 6.359375 -7.515625 L 6.359375 -2.5625 C 6.359375 -1.738281 6.097656 -1.085938 5.578125 -0.609375 C 5.066406 -0.128906 4.363281 0.109375 3.46875 0.109375 C 2.59375 0.109375 1.894531 -0.125 1.375 -0.59375 C 0.863281 -1.0625 0.601562 -1.695312 0.59375 -2.5 L 0.59375 -7.515625 L 2.140625 -7.515625 L 2.140625 -2.546875 C 2.140625 -2.054688 2.257812 -1.695312 2.5 -1.46875 C 2.738281 -1.25 3.0625 -1.140625 3.46875 -1.140625 C 4.34375 -1.140625 4.785156 -1.597656 4.796875 -2.515625 L 4.796875 -7.515625 Z M 6.359375 -7.515625 "/></g></g></g><g fill="#632f24" fill-opacity="1"><g transform="translate(100.928638, 123.994772)"><g><path d="M 2.6875 -7.515625 L 4.625 -2.0625 L 6.546875 -7.515625 L 8.578125 -7.515625 L 8.578125 0 L 7.015625 0 L 7.015625 -2.046875 L 7.171875 -5.59375 L 5.140625 0 L 4.078125 0 L 2.0625 -5.59375 L 2.21875 -2.046875 L 2.21875 0 L 0.671875 0 L 0.671875 -7.515625 Z M 2.6875 -7.515625 "/></g></g></g><g fill="#632f24" fill-opacity="1"><g transform="translate(111.330089, 123.994772)"><g/></g></g><g fill="#632f24" fill-opacity="1"><g transform="translate(115.111332, 123.994772)"><g><path d="M 6.828125 -3.578125 C 6.828125 -2.878906 6.710938 -2.269531 6.484375 -1.75 C 6.253906 -1.238281 5.941406 -0.828125 5.546875 -0.515625 L 6.796875 0.46875 L 5.8125 1.34375 L 4.203125 0.0625 C 4.023438 0.09375 3.835938 0.109375 3.640625 0.109375 C 3.015625 0.109375 2.457031 -0.0390625 1.96875 -0.34375 C 1.488281 -0.644531 1.113281 -1.070312 0.84375 -1.625 C 0.570312 -2.175781 0.4375 -2.816406 0.4375 -3.546875 L 0.4375 -3.921875 C 0.4375 -4.648438 0.566406 -5.296875 0.828125 -5.859375 C 1.097656 -6.421875 1.472656 -6.851562 1.953125 -7.15625 C 2.441406 -7.457031 3 -7.609375 3.625 -7.609375 C 4.25 -7.609375 4.804688 -7.457031 5.296875 -7.15625 C 5.785156 -6.851562 6.160156 -6.421875 6.421875 -5.859375 C 6.691406 -5.296875 6.828125 -4.648438 6.828125 -3.921875 Z M 5.265625 -3.921875 C 5.265625 -4.710938 5.125 -5.3125 4.84375 -5.71875 C 4.5625 -6.125 4.15625 -6.328125 3.625 -6.328125 C 3.113281 -6.328125 2.710938 -6.125 2.421875 -5.71875 C 2.140625 -5.320312 2 -4.734375 2 -3.953125 L 2 -3.578125 C 2 -2.816406 2.140625 -2.222656 2.421875 -1.796875 C 2.703125 -1.378906 3.109375 -1.171875 3.640625 -1.171875 C 4.160156 -1.171875 4.554688 -1.375 4.828125 -1.78125 C 5.109375 -2.1875 5.253906 -2.78125 5.265625 -3.5625 Z M 5.265625 -3.921875 "/></g></g></g><g fill="#632f24" fill-opacity="1"><g transform="translate(123.553531, 123.994772)"><g><path d="M 6.359375 -7.515625 L 6.359375 -2.5625 C 6.359375 -1.738281 6.097656 -1.085938 5.578125 -0.609375 C 5.066406 -0.128906 4.363281 0.109375 3.46875 0.109375 C 2.59375 0.109375 1.894531 -0.125 1.375 -0.59375 C 0.863281 -1.0625 0.601562 -1.695312 0.59375 -2.5 L 0.59375 -7.515625 L 2.140625 -7.515625 L 2.140625 -2.546875 C 2.140625 -2.054688 2.257812 -1.695312 2.5 -1.46875 C 2.738281 -1.25 3.0625 -1.140625 3.46875 -1.140625 C 4.34375 -1.140625 4.785156 -1.597656 4.796875 -2.515625 L 4.796875 -7.515625 Z M 6.359375 -7.515625 "/></g></g></g><g fill="#632f24" fill-opacity="1"><g transform="translate(131.65544, 123.994772)"><g><path d="M 4.90625 -1.546875 L 2.203125 -1.546875 L 1.6875 0 L 0.03125 0 L 2.828125 -7.515625 L 4.265625 -7.515625 L 7.078125 0 L 5.4375 0 Z M 2.609375 -2.796875 L 4.484375 -2.796875 L 3.546875 -5.609375 Z M 2.609375 -2.796875 "/></g></g></g><g fill="#632f24" fill-opacity="1"><g transform="translate(139.912026, 123.994772)"><g><path d="M 2.21875 -1.25 L 5.5 -1.25 L 5.5 0 L 0.671875 0 L 0.671875 -7.515625 L 2.21875 -7.515625 Z M 2.21875 -1.25 "/></g></g></g><g fill="#632f24" fill-opacity="1"><g transform="translate(146.781668, 123.994772)"><g><path d="M 2.3125 0 L 0.765625 0 L 0.765625 -7.515625 L 2.3125 -7.515625 Z M 2.3125 0 "/></g></g></g><g fill="#632f24" fill-opacity="1"><g transform="translate(151.011477, 123.994772)"><g><path d="M 6.328125 -6.25 L 4.015625 -6.25 L 4.015625 0 L 2.46875 0 L 2.46875 -6.25 L 0.203125 -6.25 L 0.203125 -7.515625 L 6.328125 -7.515625 Z M 6.328125 -6.25 "/></g></g></g><g fill="#632f24" fill-opacity="1"><g transform="translate(158.695756, 123.994772)"><g><path d="M 3.265625 -4.125 L 4.828125 -7.515625 L 6.515625 -7.515625 L 4.046875 -2.71875 L 4.046875 0 L 2.46875 0 L 2.46875 -2.71875 L 0.015625 -7.515625 L 1.703125 -7.515625 Z M 3.265625 -4.125 "/></g></g></g></svg>