<svg xmlns="http://www.w3.org/2000/svg" xmlns:xlink="http://www.w3.org/1999/xlink" width="500" zoomAndPan="magnify" viewBox="0 0 375 374.999991" height="500" preserveAspectRatio="xMidYMid meet" version="1.0"><defs><g/><clipPath id="49b1a4d0b9"><path d="M 152 133 L 223 133 L 223 177.34375 L 152 177.34375 Z M 152 133 " clip-rule="nonzero"/></clipPath><clipPath id="8e9d8be24c"><path d="M 148.277344 115 L 172 115 L 172 132 L 148.277344 132 Z M 148.277344 115 " clip-rule="nonzero"/></clipPath></defs><path stroke-linecap="round" transform="matrix(0.75, 0, 0, 0.75, 237.749667, 166.759911)" fill="none" stroke-linejoin="miter" d="M 1.000444 1.00241 L 132.000452 1.00241 " stroke="#632f24" stroke-width="2" stroke-opacity="1" stroke-miterlimit="4"/><path stroke-linecap="round" transform="matrix(0.75, 0, 0, 0.75, 37.500002, 166.759911)" fill="none" stroke-linejoin="miter" d="M 0.999997 1.00241 L 132.000006 1.00241 " stroke="#632f24" stroke-width="2" stroke-opacity="1" stroke-miterlimit="4"/><path stroke-linecap="round" transform="matrix(0.75, 0, 0, 0.75, 37.500002, 252.921545)" fill="none" stroke-linejoin="miter" d="M 0.999997 1.00044 L 399.000023 1.00044 " stroke="#632f24" stroke-width="2" stroke-opacity="1" stroke-miterlimit="4"/><g clip-path="url(#49b1a4d0b9)"><path fill="#603322" d="M 220.632812 149.300781 C 220.367188 149.75 220.074219 150.167969 219.757812 150.5625 C 219.851562 150.304688 219.945312 150.039062 220.054688 149.765625 C 220.429688 148.820312 221.003906 148.039062 221.164062 147.007812 C 221.324219 145.972656 221.171875 144.886719 220.9375 143.875 C 220.1875 140.609375 217.179688 139.65625 214.175781 139.589844 C 215.527344 139.457031 216.894531 139.628906 218.15625 140.203125 C 219.683594 140.894531 221.007812 142.132812 221.546875 143.757812 C 222.183594 145.664062 221.625 147.632812 220.632812 149.300781 Z M 208.300781 160.410156 C 207.339844 161.449219 205.042969 164.070312 203.476562 162.738281 C 203.933594 161.644531 204.359375 160.539062 204.753906 159.421875 C 205.230469 159.976562 206.242188 159.902344 206.90625 159.644531 C 208.382812 159.066406 209.617188 157.804688 210.359375 156.421875 C 210.5625 156.046875 210.707031 155.628906 210.960938 155.277344 C 211.328125 154.769531 211.867188 154.46875 212.367188 154.113281 C 213.109375 153.585938 213.820312 153.011719 214.492188 152.398438 C 215.828125 151.171875 217.085938 149.761719 218.03125 148.203125 C 218.78125 146.96875 219.089844 145.511719 218.144531 144.285156 C 217.230469 143.09375 215.683594 142.6875 214.25 142.871094 C 212.628906 143.078125 210.828125 143.867188 209.46875 144.773438 C 208.820312 145.203125 208.183594 145.730469 207.773438 146.378906 C 207.800781 146.109375 207.832031 145.835938 207.859375 145.5625 C 207.921875 144.960938 207.992188 144.335938 208.035156 143.707031 C 208.035156 143.707031 208.035156 143.707031 208.039062 143.707031 C 208.109375 143.648438 208.097656 143.554688 208.050781 143.507812 C 208.078125 143.027344 208.085938 142.542969 208.054688 142.070312 C 208.6875 141.742188 209.265625 141.316406 209.894531 140.972656 C 210.804688 140.472656 211.765625 140.089844 212.773438 139.835938 C 212.871094 139.8125 212.96875 139.789062 213.066406 139.765625 C 214.273438 139.671875 215.480469 139.632812 216.660156 139.957031 C 217.664062 140.234375 218.726562 140.875 219.476562 141.605469 C 220.382812 142.484375 220.671875 143.628906 220.847656 144.839844 C 221.003906 145.910156 221.011719 146.976562 220.605469 148 C 220.304688 148.757812 219.875 149.429688 219.621094 150.210938 C 219.488281 150.625 219.320312 150.980469 219.117188 151.304688 C 217.109375 153.480469 214.441406 154.988281 212.097656 156.792969 C 210.691406 157.875 209.5 159.113281 208.300781 160.410156 Z M 199.015625 169.222656 C 198.953125 169.21875 198.894531 169.226562 198.832031 169.242188 C 199.054688 168.671875 199.265625 168.109375 199.605469 167.582031 C 199.96875 167.019531 200.398438 166.5 200.804688 165.96875 C 200.847656 165.910156 200.886719 165.855469 200.929688 165.796875 C 200.90625 165.839844 200.886719 165.878906 200.867188 165.917969 C 200.285156 167.039062 199.667969 168.144531 199.015625 169.222656 Z M 193.855469 174.21875 C 192.261719 175.03125 190.519531 175.542969 188.765625 175.878906 C 186.921875 176.230469 185.03125 176.359375 183.152344 176.320312 C 182.273438 176.300781 181.386719 176.246094 180.507812 176.15625 C 179.941406 176.097656 179.355469 175.960938 178.777344 175.941406 C 178.261719 175.582031 177.679688 175.304688 177.074219 175.058594 C 178.203125 175.207031 179.351562 175.269531 180.460938 175.304688 C 182.71875 175.367188 184.976562 175.246094 187.207031 174.886719 C 189.453125 174.527344 191.675781 173.984375 193.820312 173.207031 C 194.925781 172.808594 196.179688 172.378906 197.300781 171.777344 C 196.742188 172.148438 196.285156 172.65625 195.746094 173.050781 C 195.148438 173.492188 194.515625 173.878906 193.855469 174.21875 Z M 162.914062 165.523438 C 161.167969 163.652344 159.628906 161.589844 158.296875 159.402344 C 158.414062 159.550781 158.535156 159.703125 158.652344 159.855469 C 160.71875 162.5625 162.746094 165.269531 165.125 167.707031 C 164.359375 167.007812 163.621094 166.28125 162.914062 165.523438 Z M 156.433594 143.332031 C 156.507812 143.332031 156.582031 143.3125 156.660156 143.261719 C 156.855469 143.136719 157.050781 143.015625 157.25 142.890625 C 156.371094 143.761719 155.628906 144.757812 154.992188 145.855469 C 154.660156 146.429688 154.109375 147.246094 153.882812 148.042969 C 153.660156 146.21875 155.199219 144.578125 156.433594 143.332031 Z M 177.347656 135.492188 C 180.347656 134.914062 183.40625 134.667969 186.460938 134.652344 C 185.074219 134.71875 183.695312 134.820312 182.328125 134.953125 C 178.097656 135.367188 173.914062 136.136719 169.808594 137.246094 C 168.890625 137.496094 167.949219 137.75 167.003906 138.027344 C 170.375 136.945312 173.875 136.160156 177.347656 135.492188 Z M 206.367188 139.460938 C 206.253906 139.347656 206.136719 139.238281 206.015625 139.148438 C 205.828125 139.007812 205.628906 138.9375 205.425781 138.832031 C 204.773438 138.476562 204.339844 138.007812 203.785156 137.539062 C 203.421875 137.226562 203.039062 136.945312 202.640625 136.683594 C 203.703125 137.0625 204.71875 137.578125 205.53125 138.363281 C 205.851562 138.671875 206.140625 139.046875 206.367188 139.460938 Z M 214.667969 137.121094 C 214.300781 137.167969 213.96875 137.214844 213.703125 137.238281 C 211.496094 137.441406 209.660156 138.582031 207.746094 139.636719 C 207.683594 139.464844 207.613281 139.296875 207.53125 139.132812 C 209.597656 137.839844 212.199219 136.941406 214.667969 137.121094 Z M 210.738281 154.125 C 210.234375 154.382812 209.761719 154.730469 209.3125 155.050781 C 208.804688 155.414062 208.03125 156.03125 207.363281 156.203125 C 207.105469 156.183594 206.863281 156.117188 206.621094 155.917969 C 206.34375 155.695312 206.179688 155.363281 206.125 155.011719 C 206.601562 153.25 206.992188 151.46875 207.300781 149.671875 C 207.421875 148.976562 207.527344 148.277344 207.621094 147.578125 C 208.765625 145.453125 211.34375 144.347656 213.613281 143.851562 C 214.992188 143.554688 216.671875 143.6875 217.523438 144.992188 C 218.421875 146.371094 217.152344 147.964844 216.328125 149.039062 C 215.546875 150.0625 214.667969 151.011719 213.703125 151.871094 C 212.777344 152.695312 211.65625 153.296875 210.738281 154.125 Z M 206.367188 158.800781 C 206.128906 158.816406 205.898438 158.777344 205.691406 158.5625 C 205.476562 158.34375 205.410156 158.117188 205.40625 157.8125 C 205.402344 157.675781 205.425781 157.535156 205.429688 157.394531 C 205.582031 156.917969 205.726562 156.4375 205.863281 155.953125 C 206.117188 156.515625 206.824219 156.90625 207.46875 156.851562 C 208.195312 156.789062 208.769531 156.28125 209.335938 155.871094 C 209.441406 155.792969 209.550781 155.71875 209.664062 155.648438 C 209.429688 156.089844 209.203125 156.539062 208.890625 156.925781 C 208.710938 157.148438 207.335938 158.398438 206.367188 158.800781 Z M 154.722656 151.375 C 154.828125 151.800781 154.941406 152.222656 155.0625 152.644531 C 154.894531 152.199219 154.730469 151.75 154.570312 151.300781 C 154.621094 151.324219 154.671875 151.351562 154.722656 151.375 Z M 154.523438 151.011719 C 154.5 151 154.476562 150.988281 154.453125 150.976562 C 154.449219 150.964844 154.445312 150.949219 154.441406 150.9375 C 154.46875 150.960938 154.496094 150.988281 154.523438 151.011719 Z M 193.835938 150.710938 C 194.113281 150.621094 194.394531 150.511719 194.679688 150.402344 C 195.820312 149.964844 196.945312 149.484375 198.058594 148.980469 C 198.792969 148.648438 199.523438 148.300781 200.246094 147.941406 C 199.292969 148.722656 198.304688 149.355469 197.191406 149.9375 C 196.339844 150.382812 195.542969 150.664062 194.574219 150.707031 C 194.328125 150.714844 194.082031 150.710938 193.835938 150.710938 Z M 164.835938 154.019531 C 166.355469 154.171875 167.890625 154.230469 169.417969 154.167969 C 170.183594 154.304688 171 154.320312 171.738281 154.359375 C 172.5625 154.402344 173.398438 154.410156 174.230469 154.394531 C 170.753906 155.132812 167.296875 155.15625 163.808594 154.449219 C 162.152344 154.113281 160.566406 153.617188 159.019531 153.019531 C 160.929688 153.496094 162.878906 153.824219 164.835938 154.019531 Z M 157.710938 147.386719 C 157.585938 147.539062 157.464844 147.691406 157.347656 147.84375 C 157.457031 147.6875 157.574219 147.535156 157.710938 147.386719 Z M 184.367188 137.714844 C 184.386719 137.710938 184.40625 137.707031 184.425781 137.699219 C 184.445312 137.695312 184.464844 137.6875 184.480469 137.679688 C 187.863281 137.335938 191.273438 137.429688 194.628906 138.15625 C 191.222656 137.921875 187.78125 137.78125 184.367188 137.714844 Z M 184.207031 140.125 C 184.324219 140.097656 184.4375 140.070312 184.554688 140.039062 C 184.652344 140.046875 184.753906 140.054688 184.851562 140.0625 C 184.636719 140.078125 184.421875 140.101562 184.207031 140.125 Z M 194.90625 140.519531 C 194.570312 140.457031 194.234375 140.402344 193.898438 140.347656 C 194.632812 140.441406 195.363281 140.574219 196.078125 140.769531 C 195.617188 140.65625 195.203125 140.574219 194.90625 140.519531 Z M 168.441406 150.910156 C 168.703125 150.960938 168.964844 151 169.230469 151.035156 C 168.445312 150.964844 167.660156 150.890625 166.871094 150.824219 C 167.398438 150.796875 167.921875 150.808594 168.441406 150.910156 Z M 167.257812 143.695312 C 167.203125 143.730469 167.148438 143.769531 167.09375 143.804688 C 167.089844 143.773438 167.082031 143.742188 167.074219 143.710938 C 167.234375 143.644531 167.394531 143.574219 167.550781 143.507812 C 167.453125 143.570312 167.355469 143.628906 167.257812 143.695312 Z M 173.457031 142.816406 C 171.972656 143.417969 170.507812 144.125 169.144531 144.980469 C 170.238281 144.203125 171.429688 143.550781 172.613281 142.9375 C 172.671875 142.90625 172.734375 142.875 172.792969 142.84375 C 172.929688 142.796875 173.066406 142.753906 173.199219 142.710938 C 173.917969 142.5 174.636719 142.296875 175.363281 142.101562 C 174.71875 142.324219 174.085938 142.5625 173.457031 142.816406 Z M 191.738281 148.324219 C 191.746094 148.324219 191.753906 148.324219 191.761719 148.324219 C 191.75 148.324219 191.738281 148.328125 191.726562 148.332031 C 191.730469 148.328125 191.734375 148.324219 191.738281 148.324219 Z M 190.929688 148.464844 C 191.023438 148.402344 191.113281 148.335938 191.199219 148.269531 C 191.195312 148.332031 191.226562 148.390625 191.277344 148.433594 C 191.089844 148.484375 190.90625 148.539062 190.71875 148.597656 C 190.792969 148.554688 190.863281 148.511719 190.929688 148.464844 Z M 178.351562 150.085938 C 179.761719 150.019531 181.183594 149.898438 182.589844 149.695312 C 182.109375 149.808594 181.625 149.917969 181.140625 150.023438 C 180.089844 150.257812 179.023438 150.492188 177.9375 150.425781 C 177.207031 150.382812 176.484375 150.21875 175.761719 150.09375 C 176.628906 150.117188 177.492188 150.125 178.351562 150.085938 Z M 193.457031 143.511719 C 193.882812 143.699219 194.203125 143.964844 194.328125 144.335938 C 194.132812 144.023438 193.820312 143.738281 193.457031 143.511719 Z M 192.933594 146.683594 C 193.1875 146.460938 193.382812 146.222656 193.523438 145.976562 C 193.589844 146.007812 193.660156 146.019531 193.734375 146.011719 C 193.273438 146.535156 192.648438 147.035156 192.109375 147.457031 C 192.378906 147.191406 192.648438 146.925781 192.933594 146.683594 Z M 179.875 148.414062 C 180.605469 148.273438 181.316406 148.039062 182.070312 147.996094 C 182.421875 147.976562 182.851562 148.011719 183.316406 148.050781 C 182.875 148.136719 182.429688 148.210938 181.984375 148.277344 C 181.28125 148.355469 180.574219 148.398438 179.875 148.414062 Z M 170.796875 148.804688 C 170.796875 148.804688 170.800781 148.804688 170.800781 148.804688 C 170.796875 148.804688 170.796875 148.804688 170.796875 148.804688 Z M 185.523438 146.65625 C 185.511719 146.660156 185.503906 146.660156 185.492188 146.664062 C 185.433594 146.671875 185.371094 146.675781 185.3125 146.679688 C 185.382812 146.671875 185.453125 146.664062 185.523438 146.65625 Z M 188.613281 145.539062 C 188.921875 145.519531 189.230469 145.496094 189.539062 145.472656 C 189.316406 145.53125 189.09375 145.578125 188.867188 145.574219 C 188.78125 145.574219 188.695312 145.5625 188.613281 145.539062 Z M 197.199219 141.484375 C 198.503906 141.855469 200.191406 142.890625 198.714844 144.363281 C 198.144531 144.933594 197.378906 145.351562 196.714844 145.808594 C 195.371094 146.722656 193.851562 147.75 192.203125 147.957031 C 193.738281 146.730469 196.507812 144.3125 193.871094 143.140625 C 192.46875 142.515625 190.734375 142.527344 189.234375 142.59375 C 187.488281 142.667969 185.738281 142.839844 184 143.015625 C 177.847656 143.636719 171.667969 144.855469 166.195312 147.824219 C 166.339844 147.648438 166.484375 147.476562 166.628906 147.304688 C 168.730469 145.347656 171.347656 143.980469 174.007812 142.949219 C 177.398438 141.632812 181 140.757812 184.621094 140.433594 C 188.792969 140.058594 193.15625 140.328125 197.199219 141.484375 Z M 171.003906 151.195312 C 172.273438 151.265625 173.546875 151.265625 174.828125 151.390625 C 173.546875 151.382812 172.269531 151.304688 171.003906 151.195312 Z M 206.980469 144.035156 C 206.976562 144.03125 206.972656 144.027344 206.964844 144.019531 C 206.984375 144.003906 207 143.988281 207.015625 143.972656 C 207.015625 143.988281 207.015625 144.003906 207.015625 144.019531 C 207.003906 144.023438 206.992188 144.03125 206.980469 144.035156 Z M 154.066406 148.222656 C 154.117188 148.003906 154.246094 147.773438 154.34375 147.570312 C 154.523438 147.195312 154.746094 146.835938 154.953125 146.476562 C 155.441406 145.636719 155.941406 144.796875 156.550781 144.039062 C 157.195312 143.234375 157.949219 142.546875 158.773438 141.949219 C 159.761719 141.347656 160.757812 140.773438 161.769531 140.238281 C 164.71875 138.875 167.953125 137.984375 171.070312 137.199219 C 178.058594 135.441406 185.269531 134.671875 192.464844 134.890625 C 195.359375 135.121094 198.261719 135.523438 201.058594 136.21875 C 201.378906 136.300781 201.703125 136.386719 202.023438 136.484375 C 202.421875 136.757812 202.8125 137.046875 203.1875 137.351562 C 203.726562 137.789062 204.191406 138.378906 204.742188 138.78125 C 205.394531 139.261719 206.023438 139.359375 206.507812 140.125 C 206.644531 140.335938 206.753906 140.554688 206.84375 140.773438 C 207.015625 141.710938 206.816406 142.667969 206.015625 143.363281 C 205.800781 143.550781 205.558594 143.714844 205.304688 143.867188 C 205.382812 143.273438 205.28125 142.644531 205 142.078125 C 204.136719 140.339844 202.007812 139.382812 200.34375 138.632812 C 196.554688 136.929688 192.273438 136.261719 188.144531 136.289062 C 186.550781 136.300781 184.96875 136.417969 183.40625 136.625 C 181.558594 136.542969 179.582031 136.914062 177.808594 137.210938 C 175.347656 137.621094 172.976562 138.296875 170.636719 139.164062 C 167.082031 140.480469 163.351562 141.921875 160.234375 144.1875 C 159.992188 144.304688 159.757812 144.429688 159.535156 144.570312 C 159.140625 144.828125 158.359375 145.320312 157.871094 145.855469 C 157.421875 146.21875 157.015625 146.621094 156.660156 147.078125 C 155.917969 148.046875 155.394531 149.574219 155.832031 150.742188 C 155.050781 150.265625 154.394531 149.632812 154.0625 148.777344 C 154.050781 148.742188 154.039062 148.707031 154.027344 148.671875 C 154.027344 148.492188 154.042969 148.332031 154.066406 148.222656 Z M 180.933594 174.441406 C 180.710938 174.445312 180.488281 174.445312 180.265625 174.441406 C 179.074219 174.425781 177.894531 174.3125 176.714844 174.199219 C 176.988281 174.183594 177.261719 174.167969 177.542969 174.171875 C 178.691406 174.171875 179.8125 174.292969 180.933594 174.441406 Z M 194.210938 171.871094 C 193.058594 172.355469 191.859375 172.753906 190.652344 173.082031 C 191.171875 172.796875 191.683594 172.503906 192.222656 172.273438 C 192.828125 172.011719 193.515625 171.933594 194.210938 171.871094 Z M 198.238281 169.613281 C 197.265625 170.335938 196.203125 170.957031 195.078125 171.488281 C 194.089844 171.605469 193.078125 171.644531 192.121094 172.058594 C 191.289062 172.417969 190.53125 172.929688 189.714844 173.324219 C 188.714844 173.5625 187.71875 173.761719 186.738281 173.921875 C 185.351562 174.152344 183.953125 174.3125 182.550781 174.390625 C 181.257812 174.082031 179.882812 173.988281 178.570312 173.957031 C 177.675781 173.9375 176.789062 173.988281 175.894531 174.054688 C 175.738281 174.070312 175.59375 174.074219 175.449219 174.078125 C 175.097656 174.046875 174.746094 174.019531 174.394531 173.996094 C 172.976562 173.320312 171.601562 172.550781 170.28125 171.699219 C 169.535156 171.214844 168.808594 170.703125 168.097656 170.171875 C 167.21875 169.367188 166.375 168.503906 165.523438 167.621094 C 163.214844 165.230469 161.199219 162.605469 159.167969 159.976562 C 158.132812 158.636719 156.953125 157.371094 156.378906 155.75 C 155.875 154.34375 155.480469 152.90625 154.972656 151.503906 C 160.566406 154.308594 166.558594 156.007812 172.871094 154.992188 C 173.992188 154.8125 175.101562 154.578125 176.203125 154.320312 C 178.40625 154.171875 180.542969 153.761719 182.707031 153.289062 C 184.640625 152.867188 186.578125 152.449219 188.511719 152.023438 C 189.085938 151.929688 189.65625 151.8125 190.210938 151.652344 C 190.949219 151.496094 191.707031 151.347656 192.433594 151.128906 C 192.707031 151.097656 192.976562 151.066406 193.25 151.039062 C 194.335938 151.082031 195.445312 151.097656 196.457031 150.683594 C 197.707031 150.179688 199.003906 149.4375 200.046875 148.582031 C 200.472656 148.230469 200.84375 147.820312 201.238281 147.441406 C 201.34375 147.386719 201.453125 147.332031 201.558594 147.277344 C 202.152344 146.964844 202.773438 146.648438 203.289062 146.21875 C 203.605469 146.058594 203.925781 145.902344 204.238281 145.738281 C 204.308594 145.703125 204.378906 145.664062 204.453125 145.628906 C 205.226562 145.3125 206 144.96875 206.734375 144.554688 C 206.832031 144.9375 206.875 145.363281 206.851562 145.542969 C 206.804688 145.875 206.648438 146.246094 206.5625 146.570312 C 206.414062 147.121094 206.265625 147.671875 206.121094 148.222656 C 205.820312 149.363281 205.523438 150.503906 205.222656 151.648438 C 204.578125 154.113281 203.933594 156.582031 203.257812 159.039062 C 202.636719 161.296875 202.160156 163.574219 200.734375 165.480469 C 200.121094 166.296875 199.429688 167.074219 198.949219 167.984375 C 198.664062 168.523438 198.488281 169.097656 198.238281 169.613281 Z M 202.953125 161.4375 C 203.238281 160.476562 203.476562 159.492188 203.746094 158.492188 C 204.542969 155.515625 205.320312 152.53125 206.097656 149.542969 C 206.269531 148.886719 206.476562 148.21875 206.664062 147.542969 C 206.574219 148.234375 206.472656 148.921875 206.351562 149.605469 C 205.863281 152.4375 205.160156 155.226562 204.253906 157.949219 C 203.863281 159.128906 203.425781 160.292969 202.953125 161.4375 Z M 220.210938 140.136719 C 219.386719 139.507812 218.4375 139.035156 217.425781 138.753906 C 215.714844 138.277344 213.839844 138.394531 212.160156 138.945312 C 210.789062 139.394531 209.164062 140.125 208.058594 141.195312 C 208.042969 140.703125 207.949219 140.222656 207.792969 139.761719 C 209.410156 138.835938 211.144531 137.59375 212.988281 137.425781 C 213.753906 137.355469 214.640625 137.230469 215.511719 137.226562 C 216.386719 137.382812 217.230469 137.6875 218.019531 138.175781 C 218.867188 138.703125 219.609375 139.347656 220.210938 140.136719 Z M 222.960938 144.925781 C 222.878906 144 222.597656 143.144531 222.171875 142.375 C 221.71875 140.390625 219.773438 138.171875 218.023438 137.34375 C 217.976562 137.320312 217.921875 137.300781 217.875 137.28125 C 217.808594 137.25 217.738281 137.21875 217.664062 137.191406 C 216.300781 136.636719 214.722656 136.484375 213.277344 136.597656 C 211.398438 136.75 208.710938 137.234375 207.242188 138.617188 C 207.074219 138.351562 206.882812 138.097656 206.675781 137.859375 C 204.207031 135.050781 199.722656 134.628906 196.277344 134.140625 C 191.777344 133.503906 187.203125 133.277344 182.667969 133.617188 C 177.882812 133.972656 173.117188 135.066406 168.511719 136.394531 C 164.1875 137.640625 159.367188 139.292969 156.101562 142.535156 C 156.027344 142.605469 155.988281 142.6875 155.976562 142.769531 C 153.953125 144.261719 152.332031 146.777344 153.132812 149.074219 C 154.09375 155.414062 157.847656 161.496094 162.027344 166.1875 C 164.269531 168.707031 166.832031 170.941406 169.65625 172.777344 C 171.085938 173.710938 172.582031 174.542969 174.128906 175.265625 C 175.5 175.90625 177.089844 176.773438 178.628906 176.761719 C 178.6875 176.761719 178.738281 176.75 178.785156 176.730469 C 179.25 176.875 179.75 176.929688 180.230469 177 C 181.144531 177.136719 182.0625 177.230469 182.988281 177.265625 C 185.011719 177.347656 187.042969 177.21875 189.039062 176.875 C 190.851562 176.5625 192.632812 176.050781 194.296875 175.261719 C 195.324219 174.773438 196.707031 174.050781 197.523438 173.074219 C 198.617188 172.460938 199.230469 171.015625 199.847656 169.972656 C 200.566406 168.769531 201.242188 167.539062 201.867188 166.285156 C 202.25 165.515625 202.613281 164.730469 202.960938 163.941406 C 205.066406 165.773438 208.386719 162.265625 209.714844 160.820312 C 212.335938 157.96875 215.679688 156.21875 218.589844 153.734375 C 221.109375 151.585938 223.269531 148.398438 222.960938 144.925781 " fill-opacity="1" fill-rule="nonzero"/></g><path fill="#603322" d="M 188.632812 113.101562 C 190.046875 111.507812 191.519531 109.894531 192.601562 108.042969 C 192.214844 109.046875 191.769531 110.027344 191.136719 110.921875 C 189.46875 113.285156 187.246094 115.367188 185.261719 117.484375 C 186.195312 115.898438 187.410156 114.480469 188.632812 113.101562 Z M 190.929688 115.0625 C 192.296875 113.175781 193.566406 111.191406 194.257812 108.996094 C 194.246094 109.058594 194.238281 109.117188 194.222656 109.179688 C 193.734375 111.421875 192.382812 113.320312 190.929688 115.0625 Z M 183.597656 126.277344 C 183.578125 126.097656 183.558594 125.914062 183.542969 125.734375 C 183.707031 125.453125 183.875 125.167969 184.039062 124.886719 C 183.867188 125.34375 183.71875 125.804688 183.597656 126.277344 Z M 183.472656 124.519531 C 183.472656 123.089844 183.628906 121.664062 184.027344 120.289062 C 184.292969 119.378906 184.671875 118.53125 185.125 117.726562 C 187.160156 115.59375 189.453125 113.550781 191.226562 111.191406 C 191.984375 110.183594 192.507812 109.039062 192.984375 107.878906 C 193.398438 106.867188 193.878906 105.851562 194.261719 104.8125 C 194.410156 105.796875 194.484375 106.796875 194.414062 107.789062 C 193.671875 111.078125 191.570312 113.878906 189.574219 116.542969 C 189.390625 116.785156 189.207031 117.03125 189.023438 117.273438 C 187.585938 118.953125 186.136719 120.765625 185.046875 122.734375 C 184.472656 123.585938 183.925781 124.46875 183.511719 125.398438 C 183.488281 125.101562 183.472656 124.808594 183.472656 124.519531 Z M 183.238281 128.804688 C 183.238281 128.820312 183.234375 128.835938 183.234375 128.855469 C 183.222656 129.410156 184.023438 129.386719 184.078125 128.855469 C 184.382812 125.890625 185.542969 123.5 187.28125 121.113281 C 188.867188 118.9375 190.792969 117.039062 192.441406 114.90625 C 193.886719 113.027344 195 110.898438 195.234375 108.503906 C 195.488281 105.925781 194.953125 102.695312 193.808594 100.367188 C 193.769531 100.28125 193.683594 100.253906 193.601562 100.257812 C 193.460938 100.148438 193.214844 100.226562 193.175781 100.40625 C 193.050781 100.996094 193.152344 101.542969 193.171875 102.136719 C 193.195312 102.90625 193.105469 103.660156 192.925781 104.40625 C 192.597656 105.78125 191.996094 107.050781 191.234375 108.230469 C 189.726562 110.574219 187.703125 112.519531 186.011719 114.722656 C 184.492188 116.699219 183.3125 118.867188 182.878906 121.351562 C 182.652344 122.652344 182.585938 123.976562 182.652344 125.292969 C 182.707031 126.425781 182.761719 127.761719 183.238281 128.804688 " fill-opacity="1" fill-rule="nonzero"/><path fill="#603322" d="M 173.03125 104.253906 C 173.894531 105.855469 174.609375 107.523438 175.039062 109.261719 C 174.523438 107.875 173.78125 106.546875 173.121094 105.234375 C 172.207031 103.414062 171.285156 101.273438 169.324219 100.414062 C 169.113281 100.132812 168.890625 99.871094 168.652344 99.621094 C 169.238281 99.921875 169.796875 100.261719 170.316406 100.707031 C 171.457031 101.691406 172.320312 102.933594 173.03125 104.253906 Z M 177.113281 125.707031 C 177.480469 126.492188 177.828125 127.316406 178.269531 128.074219 C 176.019531 127 173.976562 125.308594 172.664062 123.199219 C 172.234375 122.507812 171.910156 121.785156 171.671875 121.042969 C 171.527344 119.28125 171.246094 117.605469 171.679688 115.847656 C 172.0625 114.3125 172.296875 113.046875 172.242188 111.445312 C 172.171875 109.453125 171.976562 107.242188 171.316406 105.261719 C 171.210938 104.679688 171.074219 104.097656 170.894531 103.523438 C 170.566406 102.496094 170.082031 101.46875 169.441406 100.574219 C 171.210938 101.730469 172.191406 103.613281 173.085938 105.503906 C 173.640625 106.664062 174.257812 107.800781 174.765625 108.984375 C 175.070312 109.683594 175.257812 110.394531 175.378906 111.121094 C 175.46875 111.890625 175.496094 112.671875 175.453125 113.464844 C 175.367188 114.960938 175.070312 116.441406 175.089844 117.941406 C 175.109375 119.34375 175.335938 120.761719 175.730469 122.105469 C 176.089844 123.332031 176.570312 124.546875 177.113281 125.707031 Z M 171.246094 113.480469 C 171.4375 111.480469 171.640625 109.449219 171.550781 107.441406 C 171.878906 109.019531 172.003906 110.636719 172.027344 112.246094 C 172.050781 113.792969 171.519531 115.082031 171.285156 116.574219 C 171.152344 117.433594 171.152344 118.320312 171.238281 119.195312 C 170.953125 117.332031 171.058594 115.390625 171.246094 113.480469 Z M 170.460938 106.664062 C 170.714844 110.191406 169.824219 113.675781 169.886719 117.199219 C 169.992188 123.117188 173.707031 127.542969 179.128906 129.496094 C 179.25 129.539062 179.351562 129.535156 179.4375 129.5 C 179.667969 129.527344 179.890625 129.253906 179.765625 129 C 179.742188 128.957031 179.714844 128.914062 179.691406 128.867188 C 179.671875 128.808594 179.644531 128.753906 179.605469 128.707031 C 178.894531 127.414062 177.929688 126.285156 177.289062 124.941406 C 176.527344 123.335938 176.042969 121.585938 175.835938 119.820312 C 175.457031 116.546875 176.5625 113.347656 176.09375 110.074219 C 175.6875 107.214844 174.378906 104.128906 172.714844 101.78125 C 171.382812 99.90625 169.152344 97.847656 166.679688 98.222656 C 166.570312 98.171875 166.460938 98.125 166.347656 98.082031 C 166.164062 98.011719 165.992188 98.296875 166.148438 98.425781 C 168.792969 100.503906 170.222656 103.285156 170.460938 106.664062 " fill-opacity="1" fill-rule="nonzero"/><g clip-path="url(#8e9d8be24c)"><path fill="#603322" d="M 152.960938 122.84375 C 153.960938 124.136719 155.035156 125.390625 156.226562 126.492188 C 156.375 126.628906 156.527344 126.765625 156.6875 126.902344 C 155.035156 126.082031 153.730469 124.828125 152.617188 123.210938 C 152.351562 122.828125 152.113281 122.4375 151.894531 122.046875 C 152.234375 122.335938 152.589844 122.601562 152.960938 122.84375 Z M 164.945312 126.230469 C 165.808594 126.535156 166.605469 126.941406 167.328125 127.464844 C 166.984375 127.28125 166.605469 127.144531 166.15625 127.050781 C 164.605469 126.730469 163.179688 126.046875 161.664062 125.585938 C 161.207031 125.445312 160.746094 125.320312 160.285156 125.199219 C 161.863281 125.449219 163.441406 125.703125 164.945312 126.230469 Z M 158.457031 127.578125 C 158.097656 127.476562 157.75 127.359375 157.417969 127.226562 C 156.855469 126.835938 156.320312 126.371094 155.78125 125.832031 C 154.917969 124.96875 154.136719 124.027344 153.351562 123.089844 C 154.652344 123.871094 156.097656 124.390625 157.609375 124.71875 C 158.140625 124.835938 158.675781 124.933594 159.210938 125.023438 C 160.988281 125.566406 162.738281 126.191406 164.496094 126.8125 C 165.773438 127.265625 167.074219 127.265625 168.152344 128.183594 C 168.277344 128.289062 168.398438 128.398438 168.515625 128.507812 C 169 129.023438 169.425781 129.589844 169.808594 130.183594 C 168.332031 129.558594 166.789062 129.03125 165.246094 128.699219 C 163 128.214844 160.679688 128.195312 158.457031 127.578125 Z M 156.652344 128 C 158.851562 128.957031 161.277344 129.210938 163.617188 129.621094 C 166.195312 130.070312 168.429688 131.125 170.890625 131.933594 C 171.503906 132.136719 171.933594 131.15625 171.335938 130.871094 C 171.265625 130.839844 171.195312 130.808594 171.125 130.773438 C 170.820312 130.039062 170.261719 129.335938 169.832031 128.761719 C 169.140625 127.847656 168.332031 127.042969 167.386719 126.398438 C 165.328125 124.984375 162.855469 124.523438 160.445312 124.089844 C 157.972656 123.644531 155.421875 123.175781 153.335938 121.671875 C 152.289062 120.917969 151.390625 119.953125 150.699219 118.863281 C 150.285156 118.210938 150.03125 117.417969 149.640625 116.738281 C 149.621094 116.683594 149.597656 116.625 149.578125 116.570312 C 149.550781 116.5 149.5 116.449219 149.441406 116.414062 C 149.316406 116.230469 149.175781 116.0625 149.015625 115.90625 C 148.886719 115.785156 148.675781 115.839844 148.625 116.011719 C 148.28125 117.160156 148.894531 118.503906 149.710938 119.652344 C 150.210938 120.972656 150.90625 122.230469 151.636719 123.355469 C 152.921875 125.324219 154.46875 127.046875 156.652344 128 " fill-opacity="1" fill-rule="nonzero"/></g><g fill="#632f24" fill-opacity="1"><g transform="translate(77.40561, 212.855772)"><g><path d="M 11.578125 -20.203125 C 12.703125 -20.203125 13.65625 -20.039062 14.4375 -19.71875 C 15.21875 -19.40625 15.984375 -18.960938 16.734375 -18.390625 C 16.921875 -18.222656 17.097656 -18.140625 17.265625 -18.140625 C 17.640625 -18.140625 17.882812 -18.695312 18 -19.8125 L 18.640625 -19.8125 C 18.566406 -18.488281 18.53125 -16.15625 18.53125 -12.8125 L 17.875 -12.8125 C 17.75 -14.3125 17.507812 -15.488281 17.15625 -16.34375 C 16.800781 -17.195312 16.1875 -17.914062 15.3125 -18.5 C 14.4375 -19.0625 13.566406 -19.34375 12.703125 -19.34375 C 10.765625 -19.34375 9.398438 -18.40625 8.609375 -16.53125 C 7.828125 -14.664062 7.4375 -12.4375 7.4375 -9.84375 C 7.4375 -7.25 7.828125 -5.019531 8.609375 -3.15625 C 9.398438 -1.289062 10.765625 -0.359375 12.703125 -0.359375 C 13.566406 -0.359375 14.4375 -0.640625 15.3125 -1.203125 C 16.1875 -1.742188 16.800781 -2.46875 17.15625 -3.375 C 17.507812 -4.289062 17.75 -5.59375 17.875 -7.28125 L 18.53125 -7.28125 C 18.53125 -3.789062 18.566406 -1.363281 18.640625 0 L 18 0 C 17.9375 -0.59375 17.851562 -1.015625 17.75 -1.265625 C 17.65625 -1.523438 17.515625 -1.65625 17.328125 -1.65625 C 17.171875 -1.65625 16.972656 -1.578125 16.734375 -1.421875 C 15.890625 -0.828125 15.085938 -0.375 14.328125 -0.0625 C 13.566406 0.238281 12.644531 0.390625 11.5625 0.390625 C 9.445312 0.390625 7.597656 -0.0078125 6.015625 -0.8125 C 4.429688 -1.613281 3.195312 -2.773438 2.3125 -4.296875 C 1.4375 -5.816406 1 -7.628906 1 -9.734375 C 1 -11.785156 1.445312 -13.601562 2.34375 -15.1875 C 3.238281 -16.78125 4.488281 -18.015625 6.09375 -18.890625 C 7.695312 -19.765625 9.523438 -20.203125 11.578125 -20.203125 Z M 11.578125 -20.203125 "/></g></g></g><g fill="#632f24" fill-opacity="1"><g transform="translate(99.681678, 212.855772)"><g><path d="M 11.578125 -20.203125 C 13.691406 -20.203125 15.539062 -19.800781 17.125 -19 C 18.707031 -18.195312 19.9375 -17.035156 20.8125 -15.515625 C 21.695312 -13.992188 22.140625 -12.179688 22.140625 -10.078125 C 22.140625 -8.023438 21.691406 -6.203125 20.796875 -4.609375 C 19.898438 -3.023438 18.648438 -1.796875 17.046875 -0.921875 C 15.441406 -0.046875 13.613281 0.390625 11.5625 0.390625 C 9.445312 0.390625 7.597656 -0.0078125 6.015625 -0.8125 C 4.429688 -1.613281 3.195312 -2.773438 2.3125 -4.296875 C 1.4375 -5.816406 1 -7.628906 1 -9.734375 C 1 -11.785156 1.445312 -13.601562 2.34375 -15.1875 C 3.238281 -16.78125 4.488281 -18.015625 6.09375 -18.890625 C 7.695312 -19.765625 9.523438 -20.203125 11.578125 -20.203125 Z M 11.46875 -19.703125 C 10.5625 -19.703125 9.753906 -19.285156 9.046875 -18.453125 C 8.347656 -17.617188 7.8125 -16.457031 7.4375 -14.96875 C 7.070312 -13.476562 6.890625 -11.769531 6.890625 -9.84375 C 6.890625 -7.90625 7.101562 -6.195312 7.53125 -4.71875 C 7.957031 -3.25 8.535156 -2.113281 9.265625 -1.3125 C 9.992188 -0.507812 10.796875 -0.109375 11.671875 -0.109375 C 12.585938 -0.109375 13.394531 -0.523438 14.09375 -1.359375 C 14.789062 -2.191406 15.328125 -3.351562 15.703125 -4.84375 C 16.078125 -6.332031 16.265625 -8.039062 16.265625 -9.96875 C 16.265625 -11.90625 16.046875 -13.609375 15.609375 -15.078125 C 15.179688 -16.554688 14.601562 -17.695312 13.875 -18.5 C 13.144531 -19.300781 12.34375 -19.703125 11.46875 -19.703125 Z M 11.46875 -19.703125 "/></g></g></g><g fill="#632f24" fill-opacity="1"><g transform="translate(125.036027, 212.855772)"><g><path d="M 15.703125 -19.25 L 7.21875 -0.640625 L 8.390625 -0.640625 C 9.160156 -0.640625 10.039062 -0.859375 11.03125 -1.296875 C 12.019531 -1.734375 12.914062 -2.453125 13.71875 -3.453125 C 14.519531 -4.453125 15.003906 -5.726562 15.171875 -7.28125 L 15.8125 -7.28125 C 15.757812 -6.601562 15.734375 -5.742188 15.734375 -4.703125 C 15.734375 -2.796875 15.796875 -1.226562 15.921875 0 C 14.546875 -0.0507812 12.222656 -0.078125 8.953125 -0.078125 C 5.316406 -0.078125 2.675781 -0.0507812 1.03125 0 L 1.03125 -0.5625 L 9.515625 -19.171875 L 8.109375 -19.171875 C 7.234375 -19.171875 6.359375 -18.976562 5.484375 -18.59375 C 4.609375 -18.207031 3.832031 -17.5625 3.15625 -16.65625 C 2.488281 -15.757812 2.050781 -14.570312 1.84375 -13.09375 L 1.203125 -13.09375 C 1.253906 -13.582031 1.28125 -14.253906 1.28125 -15.109375 C 1.28125 -16.492188 1.21875 -18.0625 1.09375 -19.8125 C 2.25 -19.757812 4.195312 -19.734375 6.9375 -19.734375 C 10.96875 -19.734375 13.890625 -19.757812 15.703125 -19.8125 Z M 15.703125 -19.25 "/></g></g></g><g fill="#632f24" fill-opacity="1"><g transform="translate(144.233816, 212.855772)"><g><path d="M 15.640625 -19.75 C 16.515625 -19.75 17.234375 -19.78125 17.796875 -19.84375 L 17.796875 -19.28125 C 16.847656 -18.8125 15.859375 -17.570312 14.828125 -15.5625 L 12.234375 -10.40625 L 12.234375 -2.96875 C 12.234375 -2.257812 12.28125 -1.742188 12.375 -1.421875 C 12.476562 -1.109375 12.660156 -0.894531 12.921875 -0.78125 C 13.191406 -0.664062 13.625 -0.59375 14.21875 -0.5625 L 14.21875 0 C 13.132812 -0.0507812 11.53125 -0.078125 9.40625 -0.078125 C 7.1875 -0.078125 5.570312 -0.0507812 4.5625 0 L 4.5625 -0.5625 C 5.15625 -0.59375 5.585938 -0.664062 5.859375 -0.78125 C 6.128906 -0.894531 6.3125 -1.109375 6.40625 -1.421875 C 6.5 -1.742188 6.546875 -2.257812 6.546875 -2.96875 L 6.546875 -8.109375 L 1.375 -17.6875 C 1.070312 -18.226562 0.78125 -18.625 0.5 -18.875 C 0.21875 -19.125 -0.03125 -19.25 -0.25 -19.25 L -0.25 -19.84375 C 0.90625 -19.726562 2.191406 -19.671875 3.609375 -19.671875 C 5.210938 -19.671875 7.265625 -19.726562 9.765625 -19.84375 L 9.765625 -19.25 C 9.015625 -19.25 8.453125 -19.210938 8.078125 -19.140625 C 7.710938 -19.066406 7.53125 -18.890625 7.53125 -18.609375 C 7.53125 -18.472656 7.566406 -18.332031 7.640625 -18.1875 L 11.640625 -10.515625 L 12.90625 -13.046875 C 13.78125 -14.796875 14.21875 -16.179688 14.21875 -17.203125 C 14.21875 -18.535156 13.472656 -19.226562 11.984375 -19.28125 L 11.984375 -19.84375 C 13.378906 -19.78125 14.597656 -19.75 15.640625 -19.75 Z M 15.640625 -19.75 "/></g></g></g><g fill="#632f24" fill-opacity="1"><g transform="translate(164.467021, 212.855772)"><g/></g></g><g fill="#632f24" fill-opacity="1"><g transform="translate(172.918808, 212.855772)"><g><path d="M 11.578125 -20.203125 C 12.703125 -20.203125 13.65625 -20.039062 14.4375 -19.71875 C 15.21875 -19.40625 15.984375 -18.960938 16.734375 -18.390625 C 16.921875 -18.222656 17.097656 -18.140625 17.265625 -18.140625 C 17.640625 -18.140625 17.882812 -18.695312 18 -19.8125 L 18.640625 -19.8125 C 18.566406 -18.488281 18.53125 -16.15625 18.53125 -12.8125 L 17.875 -12.8125 C 17.75 -14.3125 17.507812 -15.488281 17.15625 -16.34375 C 16.800781 -17.195312 16.1875 -17.914062 15.3125 -18.5 C 14.4375 -19.0625 13.566406 -19.34375 12.703125 -19.34375 C 10.765625 -19.34375 9.398438 -18.40625 8.609375 -16.53125 C 7.828125 -14.664062 7.4375 -12.4375 7.4375 -9.84375 C 7.4375 -7.25 7.828125 -5.019531 8.609375 -3.15625 C 9.398438 -1.289062 10.765625 -0.359375 12.703125 -0.359375 C 13.566406 -0.359375 14.4375 -0.640625 15.3125 -1.203125 C 16.1875 -1.742188 16.800781 -2.46875 17.15625 -3.375 C 17.507812 -4.289062 17.75 -5.59375 17.875 -7.28125 L 18.53125 -7.28125 C 18.53125 -3.789062 18.566406 -1.363281 18.640625 0 L 18 0 C 17.9375 -0.59375 17.851562 -1.015625 17.75 -1.265625 C 17.65625 -1.523438 17.515625 -1.65625 17.328125 -1.65625 C 17.171875 -1.65625 16.972656 -1.578125 16.734375 -1.421875 C 15.890625 -0.828125 15.085938 -0.375 14.328125 -0.0625 C 13.566406 0.238281 12.644531 0.390625 11.5625 0.390625 C 9.445312 0.390625 7.597656 -0.0078125 6.015625 -0.8125 C 4.429688 -1.613281 3.195312 -2.773438 2.3125 -4.296875 C 1.4375 -5.816406 1 -7.628906 1 -9.734375 C 1 -11.785156 1.445312 -13.601562 2.34375 -15.1875 C 3.238281 -16.78125 4.488281 -18.015625 6.09375 -18.890625 C 7.695312 -19.765625 9.523438 -20.203125 11.578125 -20.203125 Z M 11.578125 -20.203125 "/></g></g></g><g fill="#632f24" fill-opacity="1"><g transform="translate(195.19488, 212.855772)"><g><path d="M 11.578125 -20.203125 C 13.691406 -20.203125 15.539062 -19.800781 17.125 -19 C 18.707031 -18.195312 19.9375 -17.035156 20.8125 -15.515625 C 21.695312 -13.992188 22.140625 -12.179688 22.140625 -10.078125 C 22.140625 -8.023438 21.691406 -6.203125 20.796875 -4.609375 C 19.898438 -3.023438 18.648438 -1.796875 17.046875 -0.921875 C 15.441406 -0.046875 13.613281 0.390625 11.5625 0.390625 C 9.445312 0.390625 7.597656 -0.0078125 6.015625 -0.8125 C 4.429688 -1.613281 3.195312 -2.773438 2.3125 -4.296875 C 1.4375 -5.816406 1 -7.628906 1 -9.734375 C 1 -11.785156 1.445312 -13.601562 2.34375 -15.1875 C 3.238281 -16.78125 4.488281 -18.015625 6.09375 -18.890625 C 7.695312 -19.765625 9.523438 -20.203125 11.578125 -20.203125 Z M 11.46875 -19.703125 C 10.5625 -19.703125 9.753906 -19.285156 9.046875 -18.453125 C 8.347656 -17.617188 7.8125 -16.457031 7.4375 -14.96875 C 7.070312 -13.476562 6.890625 -11.769531 6.890625 -9.84375 C 6.890625 -7.90625 7.101562 -6.195312 7.53125 -4.71875 C 7.957031 -3.25 8.535156 -2.113281 9.265625 -1.3125 C 9.992188 -0.507812 10.796875 -0.109375 11.671875 -0.109375 C 12.585938 -0.109375 13.394531 -0.523438 14.09375 -1.359375 C 14.789062 -2.191406 15.328125 -3.351562 15.703125 -4.84375 C 16.078125 -6.332031 16.265625 -8.039062 16.265625 -9.96875 C 16.265625 -11.90625 16.046875 -13.609375 15.609375 -15.078125 C 15.179688 -16.554688 14.601562 -17.695312 13.875 -18.5 C 13.144531 -19.300781 12.34375 -19.703125 11.46875 -19.703125 Z M 11.46875 -19.703125 "/></g></g></g><g fill="#632f24" fill-opacity="1"><g transform="translate(220.549229, 212.855772)"><g><path d="M 16.421875 -19.8125 C 16.296875 -18.0625 16.234375 -16.492188 16.234375 -15.109375 C 16.234375 -14.253906 16.257812 -13.582031 16.3125 -13.09375 L 15.671875 -13.09375 C 15.222656 -15.257812 14.535156 -16.8125 13.609375 -17.75 C 12.691406 -18.695312 11.660156 -19.171875 10.515625 -19.171875 L 10.15625 -19.171875 C 9.65625 -19.171875 9.285156 -19.128906 9.046875 -19.046875 C 8.816406 -18.960938 8.660156 -18.800781 8.578125 -18.5625 C 8.492188 -18.332031 8.453125 -17.945312 8.453125 -17.40625 L 8.453125 -10.25 L 8.734375 -10.25 C 9.703125 -10.25 10.53125 -10.628906 11.21875 -11.390625 C 11.90625 -12.148438 12.34375 -13 12.53125 -13.9375 L 13.1875 -13.9375 C 13.125 -13.15625 13.09375 -12.28125 13.09375 -11.3125 L 13.09375 -9.96875 C 13.09375 -9.007812 13.148438 -7.679688 13.265625 -5.984375 L 12.625 -5.984375 C 12.457031 -7.046875 12.019531 -7.925781 11.3125 -8.625 C 10.613281 -9.332031 9.753906 -9.6875 8.734375 -9.6875 L 8.453125 -9.6875 L 8.453125 -3.25 C 8.453125 -2.46875 8.53125 -1.894531 8.6875 -1.53125 C 8.84375 -1.175781 9.128906 -0.9375 9.546875 -0.8125 C 9.972656 -0.695312 10.644531 -0.640625 11.5625 -0.640625 L 11.5625 0 C 9.039062 -0.0507812 7.117188 -0.078125 5.796875 -0.078125 C 4.921875 -0.078125 3.695312 -0.0625 2.125 -0.03125 L 0.78125 0 L 0.78125 -0.5625 C 1.375 -0.59375 1.804688 -0.664062 2.078125 -0.78125 C 2.347656 -0.894531 2.53125 -1.109375 2.625 -1.421875 C 2.71875 -1.742188 2.765625 -2.257812 2.765625 -2.96875 L 2.765625 -16.84375 C 2.765625 -17.550781 2.710938 -18.0625 2.609375 -18.375 C 2.515625 -18.695312 2.332031 -18.914062 2.0625 -19.03125 C 1.800781 -19.144531 1.375 -19.21875 0.78125 -19.25 L 0.78125 -19.8125 C 2.945312 -19.757812 6.210938 -19.734375 10.578125 -19.734375 C 13.316406 -19.734375 15.265625 -19.757812 16.421875 -19.8125 Z M 16.421875 -19.8125 "/></g></g></g><g fill="#632f24" fill-opacity="1"><g transform="translate(239.775005, 212.855772)"><g><path d="M 16.421875 -19.8125 C 16.296875 -18.0625 16.234375 -16.492188 16.234375 -15.109375 C 16.234375 -14.253906 16.257812 -13.582031 16.3125 -13.09375 L 15.671875 -13.09375 C 15.222656 -15.257812 14.535156 -16.8125 13.609375 -17.75 C 12.691406 -18.695312 11.660156 -19.171875 10.515625 -19.171875 L 10.15625 -19.171875 C 9.65625 -19.171875 9.285156 -19.128906 9.046875 -19.046875 C 8.816406 -18.960938 8.660156 -18.800781 8.578125 -18.5625 C 8.492188 -18.332031 8.453125 -17.945312 8.453125 -17.40625 L 8.453125 -10.25 L 8.734375 -10.25 C 9.703125 -10.25 10.53125 -10.628906 11.21875 -11.390625 C 11.90625 -12.148438 12.34375 -13 12.53125 -13.9375 L 13.1875 -13.9375 C 13.125 -13.15625 13.09375 -12.28125 13.09375 -11.3125 L 13.09375 -9.96875 C 13.09375 -9.007812 13.148438 -7.679688 13.265625 -5.984375 L 12.625 -5.984375 C 12.457031 -7.046875 12.019531 -7.925781 11.3125 -8.625 C 10.613281 -9.332031 9.753906 -9.6875 8.734375 -9.6875 L 8.453125 -9.6875 L 8.453125 -3.25 C 8.453125 -2.46875 8.53125 -1.894531 8.6875 -1.53125 C 8.84375 -1.175781 9.128906 -0.9375 9.546875 -0.8125 C 9.972656 -0.695312 10.644531 -0.640625 11.5625 -0.640625 L 11.5625 0 C 9.039062 -0.0507812 7.117188 -0.078125 5.796875 -0.078125 C 4.921875 -0.078125 3.695312 -0.0625 2.125 -0.03125 L 0.78125 0 L 0.78125 -0.5625 C 1.375 -0.59375 1.804688 -0.664062 2.078125 -0.78125 C 2.347656 -0.894531 2.53125 -1.109375 2.625 -1.421875 C 2.71875 -1.742188 2.765625 -2.257812 2.765625 -2.96875 L 2.765625 -16.84375 C 2.765625 -17.550781 2.710938 -18.0625 2.609375 -18.375 C 2.515625 -18.695312 2.332031 -18.914062 2.0625 -19.03125 C 1.800781 -19.144531 1.375 -19.21875 0.78125 -19.25 L 0.78125 -19.8125 C 2.945312 -19.757812 6.210938 -19.734375 10.578125 -19.734375 C 13.316406 -19.734375 15.265625 -19.757812 16.421875 -19.8125 Z M 16.421875 -19.8125 "/></g></g></g><g fill="#632f24" fill-opacity="1"><g transform="translate(259.00078, 212.855772)"><g><path d="M 16.796875 -4.703125 C 16.796875 -2.796875 16.859375 -1.226562 16.984375 0 C 15.710938 -0.0507812 13.578125 -0.078125 10.578125 -0.078125 C 6.210938 -0.078125 2.945312 -0.0507812 0.78125 0 L 0.78125 -0.5625 C 1.375 -0.59375 1.804688 -0.664062 2.078125 -0.78125 C 2.347656 -0.894531 2.53125 -1.109375 2.625 -1.421875 C 2.71875 -1.742188 2.765625 -2.257812 2.765625 -2.96875 L 2.765625 -16.84375 C 2.765625 -17.550781 2.710938 -18.0625 2.609375 -18.375 C 2.515625 -18.695312 2.332031 -18.914062 2.0625 -19.03125 C 1.800781 -19.144531 1.375 -19.21875 0.78125 -19.25 L 0.78125 -19.8125 C 2.945312 -19.757812 6.210938 -19.734375 10.578125 -19.734375 C 13.316406 -19.734375 15.265625 -19.757812 16.421875 -19.8125 C 16.296875 -18.0625 16.234375 -16.492188 16.234375 -15.109375 C 16.234375 -14.253906 16.257812 -13.582031 16.3125 -13.09375 L 15.671875 -13.09375 C 15.335938 -15.257812 14.710938 -16.8125 13.796875 -17.75 C 12.878906 -18.695312 11.785156 -19.171875 10.515625 -19.171875 L 10.15625 -19.171875 C 9.65625 -19.171875 9.285156 -19.128906 9.046875 -19.046875 C 8.816406 -18.960938 8.660156 -18.800781 8.578125 -18.5625 C 8.492188 -18.332031 8.453125 -17.945312 8.453125 -17.40625 L 8.453125 -10.25 L 8.734375 -10.25 C 9.703125 -10.25 10.53125 -10.628906 11.21875 -11.390625 C 11.90625 -12.148438 12.34375 -13 12.53125 -13.9375 L 13.1875 -13.9375 C 13.125 -13.15625 13.09375 -12.28125 13.09375 -11.3125 L 13.09375 -9.96875 C 13.09375 -9.007812 13.148438 -7.679688 13.265625 -5.984375 L 12.625 -5.984375 C 12.457031 -7.046875 12.019531 -7.925781 11.3125 -8.625 C 10.613281 -9.332031 9.753906 -9.6875 8.734375 -9.6875 L 8.453125 -9.6875 L 8.453125 -2.40625 C 8.453125 -1.863281 8.492188 -1.472656 8.578125 -1.234375 C 8.660156 -1.003906 8.816406 -0.847656 9.046875 -0.765625 C 9.285156 -0.679688 9.65625 -0.640625 10.15625 -0.640625 L 11.078125 -0.640625 C 12.160156 -0.640625 13.1875 -1.164062 14.15625 -2.21875 C 15.125 -3.28125 15.816406 -4.96875 16.234375 -7.28125 L 16.875 -7.28125 C 16.820312 -6.601562 16.796875 -5.742188 16.796875 -4.703125 Z M 16.796875 -4.703125 "/></g></g></g><g fill="#632f24" fill-opacity="1"><g transform="translate(279.401898, 212.855772)"><g><path d="M 16.796875 -4.703125 C 16.796875 -2.796875 16.859375 -1.226562 16.984375 0 C 15.710938 -0.0507812 13.578125 -0.078125 10.578125 -0.078125 C 6.210938 -0.078125 2.945312 -0.0507812 0.78125 0 L 0.78125 -0.5625 C 1.375 -0.59375 1.804688 -0.664062 2.078125 -0.78125 C 2.347656 -0.894531 2.53125 -1.109375 2.625 -1.421875 C 2.71875 -1.742188 2.765625 -2.257812 2.765625 -2.96875 L 2.765625 -16.84375 C 2.765625 -17.550781 2.710938 -18.0625 2.609375 -18.375 C 2.515625 -18.695312 2.332031 -18.914062 2.0625 -19.03125 C 1.800781 -19.144531 1.375 -19.21875 0.78125 -19.25 L 0.78125 -19.8125 C 2.945312 -19.757812 6.210938 -19.734375 10.578125 -19.734375 C 13.316406 -19.734375 15.265625 -19.757812 16.421875 -19.8125 C 16.296875 -18.0625 16.234375 -16.492188 16.234375 -15.109375 C 16.234375 -14.253906 16.257812 -13.582031 16.3125 -13.09375 L 15.671875 -13.09375 C 15.335938 -15.257812 14.710938 -16.8125 13.796875 -17.75 C 12.878906 -18.695312 11.785156 -19.171875 10.515625 -19.171875 L 10.15625 -19.171875 C 9.65625 -19.171875 9.285156 -19.128906 9.046875 -19.046875 C 8.816406 -18.960938 8.660156 -18.800781 8.578125 -18.5625 C 8.492188 -18.332031 8.453125 -17.945312 8.453125 -17.40625 L 8.453125 -10.25 L 8.734375 -10.25 C 9.703125 -10.25 10.53125 -10.628906 11.21875 -11.390625 C 11.90625 -12.148438 12.34375 -13 12.53125 -13.9375 L 13.1875 -13.9375 C 13.125 -13.15625 13.09375 -12.28125 13.09375 -11.3125 L 13.09375 -9.96875 C 13.09375 -9.007812 13.148438 -7.679688 13.265625 -5.984375 L 12.625 -5.984375 C 12.457031 -7.046875 12.019531 -7.925781 11.3125 -8.625 C 10.613281 -9.332031 9.753906 -9.6875 8.734375 -9.6875 L 8.453125 -9.6875 L 8.453125 -2.40625 C 8.453125 -1.863281 8.492188 -1.472656 8.578125 -1.234375 C 8.660156 -1.003906 8.816406 -0.847656 9.046875 -0.765625 C 9.285156 -0.679688 9.65625 -0.640625 10.15625 -0.640625 L 11.078125 -0.640625 C 12.160156 -0.640625 13.1875 -1.164062 14.15625 -2.21875 C 15.125 -3.28125 15.816406 -4.96875 16.234375 -7.28125 L 16.875 -7.28125 C 16.820312 -6.601562 16.796875 -5.742188 16.796875 -4.703125 Z M 16.796875 -4.703125 "/></g></g></g><g fill="#632f24" fill-opacity="1"><g transform="translate(109.769464, 235.025375)"><g><path d="M 3.078125 -3.65625 L 3.078125 0 L 0.921875 0 L 0.921875 -10.390625 L 4.984375 -10.390625 C 5.765625 -10.390625 6.453125 -10.25 7.046875 -9.96875 C 7.640625 -9.6875 8.09375 -9.28125 8.40625 -8.75 C 8.726562 -8.226562 8.890625 -7.628906 8.890625 -6.953125 C 8.890625 -5.929688 8.539062 -5.125 7.84375 -4.53125 C 7.144531 -3.945312 6.179688 -3.65625 4.953125 -3.65625 Z M 3.078125 -5.40625 L 4.984375 -5.40625 C 5.546875 -5.40625 5.976562 -5.535156 6.28125 -5.796875 C 6.582031 -6.066406 6.734375 -6.445312 6.734375 -6.9375 C 6.734375 -7.445312 6.582031 -7.859375 6.28125 -8.171875 C 5.976562 -8.484375 5.5625 -8.644531 5.03125 -8.65625 L 3.078125 -8.65625 Z M 3.078125 -5.40625 "/></g></g></g><g fill="#632f24" fill-opacity="1"><g transform="translate(120.798045, 235.025375)"><g><path d="M 4.78125 -3.8125 L 3.078125 -3.8125 L 3.078125 0 L 0.921875 0 L 0.921875 -10.390625 L 4.796875 -10.390625 C 6.023438 -10.390625 6.972656 -10.113281 7.640625 -9.5625 C 8.304688 -9.019531 8.640625 -8.25 8.640625 -7.25 C 8.640625 -6.539062 8.484375 -5.945312 8.171875 -5.46875 C 7.867188 -5 7.40625 -4.625 6.78125 -4.34375 L 9.03125 -0.09375 L 9.03125 0 L 6.734375 0 Z M 3.078125 -5.546875 L 4.796875 -5.546875 C 5.335938 -5.546875 5.753906 -5.679688 6.046875 -5.953125 C 6.335938 -6.222656 6.484375 -6.597656 6.484375 -7.078125 C 6.484375 -7.566406 6.34375 -7.953125 6.0625 -8.234375 C 5.789062 -8.515625 5.367188 -8.65625 4.796875 -8.65625 L 3.078125 -8.65625 Z M 3.078125 -5.546875 "/></g></g></g><g fill="#632f24" fill-opacity="1"><g transform="translate(131.72665, 235.025375)"><g><path d="M 7.1875 -4.5 L 3.078125 -4.5 L 3.078125 -1.71875 L 7.890625 -1.71875 L 7.890625 0 L 0.921875 0 L 0.921875 -10.390625 L 7.890625 -10.390625 L 7.890625 -8.65625 L 3.078125 -8.65625 L 3.078125 -6.1875 L 7.1875 -6.1875 Z M 7.1875 -4.5 "/></g></g></g><g fill="#632f24" fill-opacity="1"><g transform="translate(141.548383, 235.025375)"><g><path d="M 3.734375 -10.390625 L 6.40625 -2.859375 L 9.0625 -10.390625 L 11.875 -10.390625 L 11.875 0 L 9.71875 0 L 9.71875 -2.84375 L 9.9375 -7.75 L 7.125 0 L 5.65625 0 L 2.859375 -7.734375 L 3.078125 -2.84375 L 3.078125 0 L 0.921875 0 L 0.921875 -10.390625 Z M 3.734375 -10.390625 "/></g></g></g><g fill="#632f24" fill-opacity="1"><g transform="translate(155.954711, 235.025375)"><g><path d="M 3.203125 0 L 1.0625 0 L 1.0625 -10.390625 L 3.203125 -10.390625 Z M 3.203125 0 "/></g></g></g><g fill="#632f24" fill-opacity="1"><g transform="translate(161.813127, 235.025375)"><g><path d="M 8.796875 -10.390625 L 8.796875 -3.546875 C 8.796875 -2.410156 8.4375 -1.507812 7.71875 -0.84375 C 7.007812 -0.1875 6.039062 0.140625 4.8125 0.140625 C 3.59375 0.140625 2.625 -0.175781 1.90625 -0.8125 C 1.195312 -1.457031 0.835938 -2.34375 0.828125 -3.46875 L 0.828125 -10.390625 L 2.96875 -10.390625 L 2.96875 -3.53125 C 2.96875 -2.851562 3.128906 -2.359375 3.453125 -2.046875 C 3.785156 -1.734375 4.238281 -1.578125 4.8125 -1.578125 C 6.019531 -1.578125 6.628906 -2.210938 6.640625 -3.484375 L 6.640625 -10.390625 Z M 8.796875 -10.390625 "/></g></g></g><g fill="#632f24" fill-opacity="1"><g transform="translate(173.034516, 235.025375)"><g><path d="M 3.734375 -10.390625 L 6.40625 -2.859375 L 9.0625 -10.390625 L 11.875 -10.390625 L 11.875 0 L 9.71875 0 L 9.71875 -2.84375 L 9.9375 -7.75 L 7.125 0 L 5.65625 0 L 2.859375 -7.734375 L 3.078125 -2.84375 L 3.078125 0 L 0.921875 0 L 0.921875 -10.390625 Z M 3.734375 -10.390625 "/></g></g></g><g fill="#632f24" fill-opacity="1"><g transform="translate(187.440841, 235.025375)"><g/></g></g><g fill="#632f24" fill-opacity="1"><g transform="translate(192.677978, 235.025375)"><g><path d="M 9.453125 -4.96875 C 9.453125 -3.988281 9.296875 -3.140625 8.984375 -2.421875 C 8.671875 -1.710938 8.234375 -1.140625 7.671875 -0.703125 L 9.40625 0.65625 L 8.046875 1.859375 L 5.828125 0.078125 C 5.578125 0.117188 5.316406 0.140625 5.046875 0.140625 C 4.179688 0.140625 3.410156 -0.0625 2.734375 -0.46875 C 2.054688 -0.882812 1.53125 -1.476562 1.15625 -2.25 C 0.789062 -3.019531 0.601562 -3.90625 0.59375 -4.90625 L 0.59375 -5.421875 C 0.59375 -6.441406 0.773438 -7.34375 1.140625 -8.125 C 1.515625 -8.90625 2.039062 -9.503906 2.71875 -9.921875 C 3.394531 -10.335938 4.164062 -10.546875 5.03125 -10.546875 C 5.894531 -10.546875 6.660156 -10.335938 7.328125 -9.921875 C 8.003906 -9.503906 8.523438 -8.90625 8.890625 -8.125 C 9.265625 -7.34375 9.453125 -6.441406 9.453125 -5.421875 Z M 7.28125 -5.4375 C 7.28125 -6.519531 7.082031 -7.34375 6.6875 -7.90625 C 6.300781 -8.476562 5.75 -8.765625 5.03125 -8.765625 C 4.3125 -8.765625 3.753906 -8.484375 3.359375 -7.921875 C 2.972656 -7.367188 2.773438 -6.550781 2.765625 -5.46875 L 2.765625 -4.96875 C 2.765625 -3.90625 2.957031 -3.078125 3.34375 -2.484375 C 3.738281 -1.898438 4.304688 -1.609375 5.046875 -1.609375 C 5.765625 -1.609375 6.316406 -1.890625 6.703125 -2.453125 C 7.085938 -3.023438 7.28125 -3.847656 7.28125 -4.921875 Z M 7.28125 -5.4375 "/></g></g></g><g fill="#632f24" fill-opacity="1"><g transform="translate(204.37068, 235.025375)"><g><path d="M 8.796875 -10.390625 L 8.796875 -3.546875 C 8.796875 -2.410156 8.4375 -1.507812 7.71875 -0.84375 C 7.007812 -0.1875 6.039062 0.140625 4.8125 0.140625 C 3.59375 0.140625 2.625 -0.175781 1.90625 -0.8125 C 1.195312 -1.457031 0.835938 -2.34375 0.828125 -3.46875 L 0.828125 -10.390625 L 2.96875 -10.390625 L 2.96875 -3.53125 C 2.96875 -2.851562 3.128906 -2.359375 3.453125 -2.046875 C 3.785156 -1.734375 4.238281 -1.578125 4.8125 -1.578125 C 6.019531 -1.578125 6.628906 -2.210938 6.640625 -3.484375 L 6.640625 -10.390625 Z M 8.796875 -10.390625 "/></g></g></g><g fill="#632f24" fill-opacity="1"><g transform="translate(215.592069, 235.025375)"><g><path d="M 6.796875 -2.140625 L 3.046875 -2.140625 L 2.328125 0 L 0.046875 0 L 3.921875 -10.390625 L 5.90625 -10.390625 L 9.796875 0 L 7.515625 0 Z M 3.625 -3.875 L 6.21875 -3.875 L 4.90625 -7.765625 Z M 3.625 -3.875 "/></g></g></g><g fill="#632f24" fill-opacity="1"><g transform="translate(227.027692, 235.025375)"><g><path d="M 3.078125 -1.71875 L 7.625 -1.71875 L 7.625 0 L 0.921875 0 L 0.921875 -10.390625 L 3.078125 -10.390625 Z M 3.078125 -1.71875 "/></g></g></g><g fill="#632f24" fill-opacity="1"><g transform="translate(236.542355, 235.025375)"><g><path d="M 3.203125 0 L 1.0625 0 L 1.0625 -10.390625 L 3.203125 -10.390625 Z M 3.203125 0 "/></g></g></g><g fill="#632f24" fill-opacity="1"><g transform="translate(242.400768, 235.025375)"><g><path d="M 8.75 -8.65625 L 5.5625 -8.65625 L 5.5625 0 L 3.421875 0 L 3.421875 -8.65625 L 0.28125 -8.65625 L 0.28125 -10.390625 L 8.75 -10.390625 Z M 8.75 -8.65625 "/></g></g></g><g fill="#632f24" fill-opacity="1"><g transform="translate(253.043727, 235.025375)"><g><path d="M 4.515625 -5.71875 L 6.671875 -10.390625 L 9.015625 -10.390625 L 5.609375 -3.765625 L 5.609375 0 L 3.421875 0 L 3.421875 -3.765625 L 0.015625 -10.390625 L 2.359375 -10.390625 Z M 4.515625 -5.71875 "/></g></g></g></svg>